<?xml version="1.0" encoding="UTF-8"?>
<svg xmlns="http://www.w3.org/2000/svg" xmlns:xlink="http://www.w3.org/1999/xlink" width="349pt" height="175pt" viewBox="0 0 349 175" version="1.1">
<g id="surface1">
<path style=" stroke:none;fill-rule:nonzero;fill:rgb(0%,0%,0%);fill-opacity:1;" d="M 13.539062 162.058594 L 13.539062 154.011719 L 14.59375 154.011719 L 14.59375 162.058594 Z M 13.539062 162.058594 "/>
<path style=" stroke:none;fill-rule:nonzero;fill:rgb(0%,0%,0%);fill-opacity:1;" d="M 16.351562 162.058594 L 16.351562 156.21875 L 17.25 156.21875 L 17.25 157.058594 C 17.664062 156.425781 18.285156 156.101562 19.105469 156.101562 C 19.457031 156.101562 19.773438 156.171875 20.0625 156.296875 C 20.359375 156.414062 20.582031 156.582031 20.726562 156.785156 C 20.867188 156.980469 20.972656 157.226562 21.039062 157.507812 C 21.078125 157.695312 21.097656 158.011719 21.097656 158.464844 L 21.097656 162.058594 L 20.101562 162.058594 L 20.101562 158.503906 C 20.101562 158.105469 20.0625 157.800781 19.984375 157.605469 C 19.90625 157.410156 19.769531 157.253906 19.574219 157.136719 C 19.378906 157.011719 19.148438 156.941406 18.890625 156.941406 C 18.472656 156.941406 18.109375 157.078125 17.796875 157.351562 C 17.496094 157.617188 17.347656 158.125 17.347656 158.875 L 17.347656 162.058594 Z M 16.351562 162.058594 "/>
<path style=" stroke:none;fill-rule:nonzero;fill:rgb(0%,0%,0%);fill-opacity:1;" d="M 22.609375 164.285156 L 22.609375 156.21875 L 23.507812 156.21875 L 23.507812 156.980469 C 23.710938 156.683594 23.945312 156.464844 24.210938 156.316406 C 24.484375 156.175781 24.816406 156.101562 25.207031 156.101562 C 25.699219 156.101562 26.132812 156.234375 26.515625 156.492188 C 26.890625 156.742188 27.179688 157.097656 27.375 157.566406 C 27.570312 158.035156 27.667969 158.542969 27.667969 159.089844 C 27.667969 159.691406 27.554688 160.234375 27.335938 160.710938 C 27.125 161.195312 26.816406 161.566406 26.417969 161.824219 C 26.011719 162.070312 25.582031 162.195312 25.128906 162.195312 C 24.800781 162.195312 24.507812 162.121094 24.25 161.980469 C 23.984375 161.839844 23.769531 161.664062 23.605469 161.453125 L 23.605469 164.285156 Z M 23.507812 159.167969 C 23.507812 159.925781 23.652344 160.488281 23.957031 160.847656 C 24.269531 161.199219 24.640625 161.375 25.070312 161.375 C 25.5 161.375 25.871094 161.195312 26.183594 160.828125 C 26.503906 160.453125 26.671875 159.871094 26.671875 159.089844 C 26.671875 158.347656 26.515625 157.796875 26.203125 157.429688 C 25.898438 157.054688 25.539062 156.863281 25.109375 156.863281 C 24.6875 156.863281 24.316406 157.070312 23.996094 157.46875 C 23.667969 157.859375 23.507812 158.425781 23.507812 159.167969 Z M 23.507812 159.167969 "/>
<path style=" stroke:none;fill-rule:nonzero;fill:rgb(0%,0%,0%);fill-opacity:1;" d="M 32.695312 162.058594 L 32.695312 161.199219 C 32.234375 161.863281 31.621094 162.195312 30.839844 162.195312 C 30.496094 162.195312 30.179688 162.128906 29.882812 162 C 29.578125 161.859375 29.355469 161.6875 29.199219 161.492188 C 29.050781 161.296875 28.953125 161.058594 28.90625 160.769531 C 28.867188 160.574219 28.847656 160.261719 28.847656 159.832031 L 28.847656 156.21875 L 29.824219 156.21875 L 29.824219 159.460938 C 29.824219 159.984375 29.847656 160.332031 29.902344 160.496094 C 29.949219 160.761719 30.078125 160.964844 30.273438 161.121094 C 30.476562 161.269531 30.730469 161.335938 31.035156 161.335938 C 31.332031 161.335938 31.609375 161.269531 31.875 161.121094 C 32.132812 160.964844 32.3125 160.761719 32.421875 160.496094 C 32.523438 160.238281 32.578125 159.851562 32.578125 159.34375 L 32.578125 156.21875 L 33.574219 156.21875 L 33.574219 162.058594 Z M 32.695312 162.058594 "/>
<path style=" stroke:none;fill-rule:nonzero;fill:rgb(0%,0%,0%);fill-opacity:1;" d="M 37.292969 161.179688 L 37.429688 162.039062 C 37.140625 162.101562 36.890625 162.136719 36.6875 162.136719 C 36.320312 162.136719 36.042969 162.078125 35.847656 161.960938 C 35.652344 161.84375 35.503906 161.699219 35.417969 161.511719 C 35.339844 161.332031 35.300781 160.945312 35.300781 160.359375 L 35.300781 157 L 34.578125 157 L 34.578125 156.21875 L 35.300781 156.21875 L 35.300781 154.773438 L 36.296875 154.1875 L 36.296875 156.21875 L 37.292969 156.21875 L 37.292969 157 L 36.296875 157 L 36.296875 160.398438 C 36.296875 160.6875 36.304688 160.867188 36.335938 160.945312 C 36.375 161.023438 36.433594 161.09375 36.511719 161.140625 C 36.589844 161.195312 36.695312 161.21875 36.84375 161.21875 C 36.960938 161.21875 37.105469 161.210938 37.292969 161.179688 Z M 37.292969 161.179688 "/>
<path style=" stroke:none;fill-rule:nonzero;fill:rgb(0%,0%,0%);fill-opacity:1;" d="M 41.355469 162.058594 L 41.355469 154.011719 L 42.332031 154.011719 L 42.332031 162.058594 Z M 41.355469 162.058594 "/>
<path style=" stroke:none;fill-rule:nonzero;fill:rgb(0%,0%,0%);fill-opacity:1;" d="M 47.683594 161.335938 C 47.316406 161.648438 46.964844 161.875 46.628906 162 C 46.285156 162.128906 45.925781 162.195312 45.535156 162.195312 C 44.894531 162.195312 44.402344 162.039062 44.050781 161.726562 C 43.707031 161.414062 43.542969 161.015625 43.542969 160.515625 C 43.542969 160.234375 43.605469 159.96875 43.738281 159.734375 C 43.863281 159.5 44.035156 159.316406 44.246094 159.167969 C 44.449219 159.027344 44.683594 158.914062 44.949219 158.835938 C 45.144531 158.796875 45.4375 158.753906 45.828125 158.699219 C 46.632812 158.613281 47.222656 158.496094 47.605469 158.347656 C 47.605469 158.222656 47.605469 158.132812 47.605469 158.09375 C 47.605469 157.695312 47.511719 157.410156 47.332031 157.253906 C 47.066406 157.019531 46.691406 156.902344 46.199219 156.902344 C 45.730469 156.902344 45.382812 156.992188 45.164062 157.15625 C 44.9375 157.3125 44.777344 157.601562 44.675781 158.015625 L 43.71875 157.898438 C 43.796875 157.484375 43.933594 157.152344 44.128906 156.902344 C 44.332031 156.644531 44.625 156.449219 45.007812 156.316406 C 45.398438 156.175781 45.835938 156.101562 46.335938 156.101562 C 46.84375 156.101562 47.242188 156.160156 47.546875 156.277344 C 47.859375 156.394531 48.082031 156.546875 48.230469 156.726562 C 48.386719 156.898438 48.488281 157.117188 48.542969 157.390625 C 48.582031 157.5625 48.601562 157.859375 48.601562 158.289062 L 48.601562 159.617188 C 48.601562 160.53125 48.621094 161.113281 48.660156 161.355469 C 48.699219 161.605469 48.78125 161.839844 48.914062 162.058594 L 47.878906 162.058594 C 47.769531 161.855469 47.707031 161.609375 47.683594 161.335938 Z M 47.605469 159.128906 C 47.238281 159.277344 46.695312 159.398438 45.984375 159.5 C 45.578125 159.570312 45.289062 159.636719 45.125 159.714844 C 44.953125 159.785156 44.820312 159.886719 44.734375 160.027344 C 44.640625 160.175781 44.597656 160.332031 44.597656 160.496094 C 44.597656 160.761719 44.695312 160.980469 44.890625 161.160156 C 45.085938 161.332031 45.378906 161.414062 45.769531 161.414062 C 46.144531 161.414062 46.480469 161.332031 46.785156 161.160156 C 47.082031 160.996094 47.300781 160.765625 47.449219 160.476562 C 47.550781 160.257812 47.605469 159.929688 47.605469 159.5 Z M 47.605469 159.128906 "/>
<path style=" stroke:none;fill-rule:nonzero;fill:rgb(0%,0%,0%);fill-opacity:1;" d="M 50.09375 164.304688 L 49.976562 163.386719 C 50.195312 163.4375 50.386719 163.464844 50.542969 163.464844 C 50.761719 163.464844 50.9375 163.425781 51.070312 163.347656 C 51.195312 163.28125 51.308594 163.183594 51.402344 163.054688 C 51.449219 162.949219 51.546875 162.703125 51.695312 162.3125 C 51.71875 162.257812 51.753906 162.179688 51.792969 162.078125 L 49.566406 156.21875 L 50.640625 156.21875 L 51.851562 159.597656 C 52.007812 160.027344 52.148438 160.476562 52.28125 160.945312 C 52.382812 160.507812 52.515625 160.0625 52.671875 159.617188 L 53.921875 156.21875 L 54.917969 156.21875 L 52.691406 162.15625 C 52.457031 162.792969 52.269531 163.234375 52.144531 163.484375 C 51.957031 163.808594 51.757812 164.042969 51.539062 164.1875 C 51.3125 164.34375 51.039062 164.421875 50.71875 164.421875 C 50.53125 164.421875 50.328125 164.382812 50.09375 164.304688 Z M 50.09375 164.304688 "/>
<path style=" stroke:none;fill-rule:nonzero;fill:rgb(0%,0%,0%);fill-opacity:1;" d="M 59.742188 160.183594 L 60.777344 160.300781 C 60.605469 160.902344 60.296875 161.371094 59.859375 161.707031 C 59.429688 162.035156 58.871094 162.195312 58.199219 162.195312 C 57.347656 162.195312 56.675781 161.9375 56.167969 161.414062 C 55.667969 160.882812 55.425781 160.140625 55.425781 159.1875 C 55.425781 158.210938 55.679688 157.460938 56.1875 156.921875 C 56.695312 156.375 57.347656 156.101562 58.160156 156.101562 C 58.941406 156.101562 59.570312 156.371094 60.054688 156.902344 C 60.546875 157.425781 60.796875 158.167969 60.796875 159.128906 C 60.796875 159.199219 60.796875 159.285156 60.796875 159.402344 L 56.441406 159.402344 C 56.480469 160.042969 56.660156 160.53125 56.988281 160.867188 C 57.308594 161.210938 57.71875 161.375 58.21875 161.375 C 58.578125 161.375 58.886719 161.289062 59.136719 161.101562 C 59.394531 160.90625 59.59375 160.605469 59.742188 160.183594 Z M 56.5 158.582031 L 59.761719 158.582031 C 59.722656 158.089844 59.59375 157.71875 59.390625 157.46875 C 59.078125 157.09375 58.667969 156.902344 58.160156 156.902344 C 57.699219 156.902344 57.320312 157.058594 57.007812 157.371094 C 56.703125 157.675781 56.539062 158.074219 56.5 158.582031 Z M 56.5 158.582031 "/>
<path style=" stroke:none;fill-rule:nonzero;fill:rgb(0%,0%,0%);fill-opacity:1;" d="M 61.992188 162.058594 L 61.992188 156.21875 L 62.890625 156.21875 L 62.890625 157.117188 C 63.113281 156.703125 63.320312 156.429688 63.515625 156.296875 C 63.710938 156.171875 63.925781 156.101562 64.160156 156.101562 C 64.484375 156.101562 64.824219 156.210938 65.175781 156.414062 L 64.824219 157.332031 C 64.589844 157.191406 64.347656 157.117188 64.101562 157.117188 C 63.894531 157.117188 63.699219 157.1875 63.515625 157.3125 C 63.347656 157.445312 63.222656 157.625 63.144531 157.859375 C 63.039062 158.210938 62.988281 158.597656 62.988281 159.011719 L 62.988281 162.058594 Z M 61.992188 162.058594 "/>
<path style=" stroke:none;fill-rule:nonzero;fill:rgb(0%,0%,0%);fill-opacity:1;" d="M 8.066406 91.175781 L 8.066406 83.128906 L 9.140625 83.128906 L 9.140625 86.429688 L 13.320312 86.429688 L 13.320312 83.128906 L 14.394531 83.128906 L 14.394531 91.175781 L 13.320312 91.175781 L 13.320312 87.386719 L 9.140625 87.386719 L 9.140625 91.175781 Z M 8.066406 91.175781 "/>
<path style=" stroke:none;fill-rule:nonzero;fill:rgb(0%,0%,0%);fill-opacity:1;" d="M 16.035156 84.261719 L 16.035156 83.128906 L 17.03125 83.128906 L 17.03125 84.261719 Z M 16.035156 91.175781 L 16.035156 85.335938 L 17.03125 85.335938 L 17.03125 91.175781 Z M 16.035156 91.175781 "/>
<path style=" stroke:none;fill-rule:nonzero;fill:rgb(0%,0%,0%);fill-opacity:1;" d="M 22.324219 91.175781 L 22.324219 90.433594 C 21.945312 91.019531 21.398438 91.3125 20.683594 91.3125 C 20.226562 91.3125 19.804688 91.179688 19.414062 90.921875 C 19.023438 90.664062 18.71875 90.304688 18.496094 89.847656 C 18.289062 89.394531 18.183594 88.867188 18.183594 88.265625 C 18.183594 87.679688 18.28125 87.152344 18.476562 86.683594 C 18.671875 86.203125 18.957031 85.839844 19.335938 85.589844 C 19.726562 85.34375 20.164062 85.21875 20.644531 85.21875 C 20.996094 85.21875 21.308594 85.292969 21.582031 85.433594 C 21.855469 85.578125 22.078125 85.773438 22.246094 86.019531 L 22.246094 83.128906 L 23.242188 83.128906 L 23.242188 91.175781 Z M 19.199219 88.265625 C 19.199219 89.007812 19.355469 89.570312 19.667969 89.945312 C 19.980469 90.3125 20.351562 90.492188 20.78125 90.492188 C 21.210938 90.492188 21.574219 90.316406 21.875 89.964844 C 22.1875 89.613281 22.34375 89.074219 22.34375 88.34375 C 22.34375 87.550781 22.1875 86.964844 21.875 86.585938 C 21.5625 86.210938 21.183594 86.019531 20.742188 86.019531 C 20.300781 86.019531 19.929688 86.203125 19.628906 86.566406 C 19.34375 86.933594 19.199219 87.5 19.199219 88.265625 Z M 19.199219 88.265625 "/>
<path style=" stroke:none;fill-rule:nonzero;fill:rgb(0%,0%,0%);fill-opacity:1;" d="M 28.582031 91.175781 L 28.582031 90.433594 C 28.203125 91.019531 27.65625 91.3125 26.941406 91.3125 C 26.484375 91.3125 26.0625 91.179688 25.671875 90.921875 C 25.28125 90.664062 24.972656 90.304688 24.753906 89.847656 C 24.542969 89.394531 24.441406 88.867188 24.441406 88.265625 C 24.441406 87.679688 24.539062 87.152344 24.734375 86.683594 C 24.929688 86.203125 25.214844 85.839844 25.59375 85.589844 C 25.984375 85.34375 26.417969 85.21875 26.902344 85.21875 C 27.253906 85.21875 27.566406 85.292969 27.839844 85.433594 C 28.113281 85.578125 28.332031 85.773438 28.503906 86.019531 L 28.503906 83.128906 L 29.5 83.128906 L 29.5 91.175781 Z M 25.457031 88.265625 C 25.457031 89.007812 25.613281 89.570312 25.925781 89.945312 C 26.238281 90.3125 26.609375 90.492188 27.039062 90.492188 C 27.46875 90.492188 27.832031 90.316406 28.132812 89.964844 C 28.445312 89.613281 28.601562 89.074219 28.601562 88.34375 C 28.601562 87.550781 28.445312 86.964844 28.132812 86.585938 C 27.820312 86.210938 27.441406 86.019531 27 86.019531 C 26.554688 86.019531 26.183594 86.203125 25.886719 86.566406 C 25.597656 86.933594 25.457031 87.5 25.457031 88.265625 Z M 25.457031 88.265625 "/>
<path style=" stroke:none;fill-rule:nonzero;fill:rgb(0%,0%,0%);fill-opacity:1;" d="M 35.035156 89.300781 L 36.070312 89.417969 C 35.898438 90.019531 35.59375 90.488281 35.152344 90.824219 C 34.722656 91.152344 34.167969 91.3125 33.492188 91.3125 C 32.644531 91.3125 31.96875 91.054688 31.460938 90.53125 C 30.964844 90 30.71875 89.257812 30.71875 88.304688 C 30.71875 87.328125 30.972656 86.574219 31.480469 86.039062 C 31.988281 85.492188 32.644531 85.21875 33.453125 85.21875 C 34.234375 85.21875 34.863281 85.488281 35.347656 86.019531 C 35.839844 86.542969 36.089844 87.285156 36.089844 88.246094 C 36.089844 88.3125 36.089844 88.402344 36.089844 88.519531 L 31.734375 88.519531 C 31.773438 89.160156 31.953125 89.648438 32.28125 89.984375 C 32.605469 90.324219 33.015625 90.492188 33.511719 90.492188 C 33.875 90.492188 34.179688 90.402344 34.429688 90.21875 C 34.6875 90.023438 34.890625 89.71875 35.035156 89.300781 Z M 31.792969 87.699219 L 35.054688 87.699219 C 35.015625 87.207031 34.890625 86.835938 34.683594 86.585938 C 34.371094 86.210938 33.960938 86.019531 33.453125 86.019531 C 32.996094 86.019531 32.613281 86.175781 32.300781 86.488281 C 32 86.789062 31.832031 87.191406 31.792969 87.699219 Z M 31.792969 87.699219 "/>
<path style=" stroke:none;fill-rule:nonzero;fill:rgb(0%,0%,0%);fill-opacity:1;" d="M 37.308594 91.175781 L 37.308594 85.335938 L 38.207031 85.335938 L 38.207031 86.175781 C 38.621094 85.539062 39.242188 85.21875 40.0625 85.21875 C 40.414062 85.21875 40.730469 85.285156 41.019531 85.414062 C 41.316406 85.53125 41.535156 85.695312 41.683594 85.902344 C 41.824219 86.097656 41.925781 86.339844 41.996094 86.625 C 42.035156 86.808594 42.054688 87.128906 42.054688 87.582031 L 42.054688 91.175781 L 41.058594 91.175781 L 41.058594 87.621094 C 41.058594 87.21875 41.019531 86.917969 40.941406 86.722656 C 40.863281 86.527344 40.726562 86.371094 40.53125 86.253906 C 40.335938 86.125 40.105469 86.058594 39.847656 86.058594 C 39.425781 86.058594 39.066406 86.195312 38.753906 86.46875 C 38.449219 86.730469 38.304688 87.238281 38.304688 87.992188 L 38.304688 91.175781 Z M 37.308594 91.175781 "/>
<path style=" stroke:none;fill-rule:nonzero;fill:rgb(0%,0%,0%);fill-opacity:1;" d="M 46.671875 91.175781 L 46.671875 83.128906 L 47.648438 83.128906 L 47.648438 91.175781 Z M 46.671875 91.175781 "/>
<path style=" stroke:none;fill-rule:nonzero;fill:rgb(0%,0%,0%);fill-opacity:1;" d="M 53 90.453125 C 52.632812 90.765625 52.28125 90.988281 51.945312 91.117188 C 51.601562 91.242188 51.242188 91.3125 50.851562 91.3125 C 50.210938 91.3125 49.71875 91.15625 49.367188 90.84375 C 49.023438 90.53125 48.859375 90.128906 48.859375 89.632812 C 48.859375 89.347656 48.921875 89.085938 49.054688 88.851562 C 49.179688 88.617188 49.351562 88.429688 49.5625 88.285156 C 49.765625 88.144531 50 88.03125 50.265625 87.953125 C 50.460938 87.914062 50.753906 87.871094 51.144531 87.816406 C 51.949219 87.726562 52.539062 87.609375 52.921875 87.464844 C 52.921875 87.335938 52.921875 87.25 52.921875 87.210938 C 52.921875 86.808594 52.828125 86.527344 52.648438 86.371094 C 52.382812 86.136719 52.007812 86.019531 51.515625 86.019531 C 51.046875 86.019531 50.699219 86.105469 50.480469 86.273438 C 50.253906 86.429688 50.09375 86.71875 49.992188 87.132812 L 49.035156 87.015625 C 49.113281 86.601562 49.25 86.269531 49.445312 86.019531 C 49.648438 85.761719 49.941406 85.566406 50.324219 85.433594 C 50.714844 85.292969 51.152344 85.21875 51.652344 85.21875 C 52.160156 85.21875 52.558594 85.277344 52.863281 85.394531 C 53.175781 85.511719 53.398438 85.664062 53.546875 85.84375 C 53.703125 86.015625 53.804688 86.234375 53.859375 86.507812 C 53.898438 86.679688 53.917969 86.976562 53.917969 87.40625 L 53.917969 88.734375 C 53.917969 89.648438 53.9375 90.226562 53.976562 90.472656 C 54.015625 90.722656 54.097656 90.957031 54.230469 91.175781 L 53.195312 91.175781 C 53.085938 90.96875 53.023438 90.726562 53 90.453125 Z M 52.921875 88.246094 C 52.554688 88.390625 52.011719 88.515625 51.300781 88.617188 C 50.894531 88.683594 50.605469 88.753906 50.441406 88.832031 C 50.269531 88.898438 50.136719 89.003906 50.050781 89.144531 C 49.957031 89.289062 49.914062 89.445312 49.914062 89.613281 C 49.914062 89.875 50.011719 90.097656 50.207031 90.277344 C 50.402344 90.449219 50.695312 90.53125 51.085938 90.53125 C 51.460938 90.53125 51.796875 90.449219 52.101562 90.277344 C 52.398438 90.109375 52.617188 89.882812 52.765625 89.59375 C 52.867188 89.375 52.921875 89.046875 52.921875 88.617188 Z M 52.921875 88.246094 "/>
<path style=" stroke:none;fill-rule:nonzero;fill:rgb(0%,0%,0%);fill-opacity:1;" d="M 55.410156 93.421875 L 55.292969 92.503906 C 55.511719 92.550781 55.703125 92.582031 55.859375 92.582031 C 56.078125 92.582031 56.253906 92.542969 56.386719 92.464844 C 56.511719 92.394531 56.625 92.296875 56.71875 92.171875 C 56.765625 92.0625 56.863281 91.820312 57.011719 91.429688 C 57.035156 91.375 57.070312 91.296875 57.109375 91.195312 L 54.882812 85.335938 L 55.957031 85.335938 L 57.167969 88.714844 C 57.324219 89.144531 57.464844 89.59375 57.597656 90.0625 C 57.699219 89.621094 57.832031 89.179688 57.988281 88.734375 L 59.238281 85.335938 L 60.234375 85.335938 L 58.007812 91.273438 C 57.773438 91.90625 57.585938 92.351562 57.460938 92.601562 C 57.273438 92.921875 57.074219 93.15625 56.855469 93.304688 C 56.628906 93.460938 56.355469 93.539062 56.035156 93.539062 C 55.847656 93.539062 55.644531 93.5 55.410156 93.421875 Z M 55.410156 93.421875 "/>
<path style=" stroke:none;fill-rule:nonzero;fill:rgb(0%,0%,0%);fill-opacity:1;" d="M 65.058594 89.300781 L 66.09375 89.417969 C 65.921875 90.019531 65.613281 90.488281 65.175781 90.824219 C 64.746094 91.152344 64.1875 91.3125 63.515625 91.3125 C 62.664062 91.3125 61.992188 91.054688 61.484375 90.53125 C 60.984375 90 60.742188 89.257812 60.742188 88.304688 C 60.742188 87.328125 60.996094 86.574219 61.503906 86.039062 C 62.011719 85.492188 62.664062 85.21875 63.476562 85.21875 C 64.257812 85.21875 64.886719 85.488281 65.371094 86.019531 C 65.863281 86.542969 66.113281 87.285156 66.113281 88.246094 C 66.113281 88.3125 66.113281 88.402344 66.113281 88.519531 L 61.757812 88.519531 C 61.796875 89.160156 61.976562 89.648438 62.304688 89.984375 C 62.625 90.324219 63.035156 90.492188 63.535156 90.492188 C 63.894531 90.492188 64.203125 90.402344 64.453125 90.21875 C 64.710938 90.023438 64.910156 89.71875 65.058594 89.300781 Z M 61.816406 87.699219 L 65.078125 87.699219 C 65.039062 87.207031 64.910156 86.835938 64.707031 86.585938 C 64.394531 86.210938 63.984375 86.019531 63.476562 86.019531 C 63.015625 86.019531 62.636719 86.175781 62.324219 86.488281 C 62.019531 86.789062 61.855469 87.191406 61.816406 87.699219 Z M 61.816406 87.699219 "/>
<path style=" stroke:none;fill-rule:nonzero;fill:rgb(0%,0%,0%);fill-opacity:1;" d="M 67.308594 91.175781 L 67.308594 85.335938 L 68.207031 85.335938 L 68.207031 86.234375 C 68.429688 85.820312 68.636719 85.546875 68.832031 85.414062 C 69.027344 85.285156 69.242188 85.21875 69.476562 85.21875 C 69.800781 85.21875 70.140625 85.324219 70.492188 85.53125 L 70.140625 86.449219 C 69.90625 86.308594 69.664062 86.234375 69.417969 86.234375 C 69.210938 86.234375 69.015625 86.300781 68.832031 86.429688 C 68.664062 86.5625 68.539062 86.742188 68.460938 86.976562 C 68.355469 87.328125 68.304688 87.714844 68.304688 88.128906 L 68.304688 91.175781 Z M 67.308594 91.175781 "/>
<path style=" stroke:none;fill-rule:nonzero;fill:rgb(0%,0%,0%);fill-opacity:1;" d="M 8.65625 16.367188 C 8.65625 15.039062 9.011719 13.996094 9.730469 13.242188 C 10.441406 12.472656 11.371094 12.089844 12.503906 12.089844 C 13.246094 12.089844 13.914062 12.273438 14.515625 12.636719 C 15.109375 12.988281 15.570312 13.484375 15.882812 14.121094 C 16.195312 14.757812 16.351562 15.476562 16.351562 16.269531 C 16.351562 17.089844 16.183594 17.824219 15.863281 18.476562 C 15.535156 19.113281 15.066406 19.601562 14.457031 19.941406 C 13.855469 20.265625 13.207031 20.429688 12.503906 20.429688 C 11.746094 20.429688 11.066406 20.246094 10.472656 19.882812 C 9.871094 19.519531 9.417969 19.015625 9.105469 18.378906 C 8.800781 17.742188 8.65625 17.070312 8.65625 16.367188 Z M 9.75 16.386719 C 9.75 17.363281 10.007812 18.132812 10.53125 18.691406 C 11.046875 19.238281 11.707031 19.511719 12.503906 19.511719 C 13.292969 19.511719 13.953125 19.230469 14.476562 18.671875 C 14.992188 18.113281 15.257812 17.3125 15.257812 16.269531 C 15.257812 15.617188 15.144531 15.050781 14.925781 14.570312 C 14.699219 14.074219 14.378906 13.691406 13.949219 13.417969 C 13.519531 13.144531 13.039062 13.007812 12.523438 13.007812 C 11.765625 13.007812 11.117188 13.269531 10.570312 13.789062 C 10.023438 14.308594 9.75 15.175781 9.75 16.386719 Z M 9.75 16.386719 "/>
<path style=" stroke:none;fill-rule:nonzero;fill:rgb(0%,0%,0%);fill-opacity:1;" d="M 21.429688 20.292969 L 21.429688 19.433594 C 20.96875 20.097656 20.355469 20.429688 19.574219 20.429688 C 19.234375 20.429688 18.914062 20.359375 18.617188 20.234375 C 18.3125 20.089844 18.089844 19.921875 17.933594 19.726562 C 17.789062 19.53125 17.6875 19.289062 17.640625 19.003906 C 17.601562 18.808594 17.582031 18.496094 17.582031 18.066406 L 17.582031 14.453125 L 18.558594 14.453125 L 18.558594 17.695312 C 18.558594 18.214844 18.582031 18.5625 18.636719 18.730469 C 18.6875 18.992188 18.8125 19.199219 19.007812 19.355469 C 19.210938 19.5 19.46875 19.570312 19.769531 19.570312 C 20.066406 19.570312 20.34375 19.5 20.609375 19.355469 C 20.867188 19.199219 21.046875 18.992188 21.15625 18.730469 C 21.257812 18.46875 21.3125 18.085938 21.3125 17.578125 L 21.3125 14.453125 L 22.308594 14.453125 L 22.308594 20.292969 Z M 21.429688 20.292969 "/>
<path style=" stroke:none;fill-rule:nonzero;fill:rgb(0%,0%,0%);fill-opacity:1;" d="M 26.027344 19.414062 L 26.164062 20.273438 C 25.875 20.335938 25.625 20.371094 25.421875 20.371094 C 25.054688 20.371094 24.777344 20.3125 24.582031 20.195312 C 24.386719 20.078125 24.238281 19.929688 24.152344 19.746094 C 24.074219 19.5625 24.035156 19.179688 24.035156 18.59375 L 24.035156 15.234375 L 23.3125 15.234375 L 23.3125 14.453125 L 24.035156 14.453125 L 24.035156 13.007812 L 25.03125 12.421875 L 25.03125 14.453125 L 26.027344 14.453125 L 26.027344 15.234375 L 25.03125 15.234375 L 25.03125 18.632812 C 25.03125 18.917969 25.039062 19.101562 25.070312 19.179688 C 25.109375 19.257812 25.167969 19.324219 25.246094 19.375 C 25.324219 19.425781 25.429688 19.453125 25.578125 19.453125 C 25.695312 19.453125 25.839844 19.441406 26.027344 19.414062 Z M 26.027344 19.414062 "/>
<path style=" stroke:none;fill-rule:nonzero;fill:rgb(0%,0%,0%);fill-opacity:1;" d="M 26.984375 22.519531 L 26.984375 14.453125 L 27.882812 14.453125 L 27.882812 15.214844 C 28.085938 14.914062 28.320312 14.695312 28.585938 14.550781 C 28.859375 14.40625 29.191406 14.335938 29.582031 14.335938 C 30.074219 14.335938 30.507812 14.464844 30.890625 14.726562 C 31.265625 14.972656 31.554688 15.332031 31.75 15.800781 C 31.945312 16.269531 32.042969 16.777344 32.042969 17.324219 C 32.042969 17.921875 31.929688 18.464844 31.710938 18.945312 C 31.5 19.425781 31.191406 19.796875 30.792969 20.058594 C 30.386719 20.300781 29.957031 20.429688 29.503906 20.429688 C 29.175781 20.429688 28.882812 20.355469 28.625 20.214844 C 28.359375 20.070312 28.144531 19.894531 27.980469 19.6875 L 27.980469 22.519531 Z M 27.882812 17.402344 C 27.882812 18.15625 28.027344 18.71875 28.332031 19.082031 C 28.644531 19.433594 29.015625 19.609375 29.445312 19.609375 C 29.875 19.609375 30.246094 19.425781 30.558594 19.0625 C 30.878906 18.683594 31.046875 18.105469 31.046875 17.324219 C 31.046875 16.582031 30.890625 16.027344 30.578125 15.664062 C 30.273438 15.285156 29.914062 15.097656 29.484375 15.097656 C 29.0625 15.097656 28.691406 15.300781 28.371094 15.703125 C 28.042969 16.09375 27.882812 16.660156 27.882812 17.402344 Z M 27.882812 17.402344 "/>
<path style=" stroke:none;fill-rule:nonzero;fill:rgb(0%,0%,0%);fill-opacity:1;" d="M 37.070312 20.292969 L 37.070312 19.433594 C 36.609375 20.097656 35.996094 20.429688 35.214844 20.429688 C 34.871094 20.429688 34.554688 20.359375 34.257812 20.234375 C 33.953125 20.089844 33.730469 19.921875 33.574219 19.726562 C 33.425781 19.53125 33.328125 19.289062 33.28125 19.003906 C 33.242188 18.808594 33.222656 18.496094 33.222656 18.066406 L 33.222656 14.453125 L 34.199219 14.453125 L 34.199219 17.695312 C 34.199219 18.214844 34.222656 18.5625 34.277344 18.730469 C 34.324219 18.992188 34.453125 19.199219 34.648438 19.355469 C 34.851562 19.5 35.105469 19.570312 35.410156 19.570312 C 35.707031 19.570312 35.984375 19.5 36.25 19.355469 C 36.507812 19.199219 36.6875 18.992188 36.796875 18.730469 C 36.898438 18.46875 36.953125 18.085938 36.953125 17.578125 L 36.953125 14.453125 L 37.949219 14.453125 L 37.949219 20.292969 Z M 37.070312 20.292969 "/>
<path style=" stroke:none;fill-rule:nonzero;fill:rgb(0%,0%,0%);fill-opacity:1;" d="M 41.667969 19.414062 L 41.804688 20.273438 C 41.515625 20.335938 41.265625 20.371094 41.0625 20.371094 C 40.695312 20.371094 40.417969 20.3125 40.222656 20.195312 C 40.027344 20.078125 39.878906 19.929688 39.792969 19.746094 C 39.714844 19.5625 39.675781 19.179688 39.675781 18.59375 L 39.675781 15.234375 L 38.953125 15.234375 L 38.953125 14.453125 L 39.675781 14.453125 L 39.675781 13.007812 L 40.671875 12.421875 L 40.671875 14.453125 L 41.667969 14.453125 L 41.667969 15.234375 L 40.671875 15.234375 L 40.671875 18.632812 C 40.671875 18.917969 40.679688 19.101562 40.710938 19.179688 C 40.75 19.257812 40.808594 19.324219 40.886719 19.375 C 40.964844 19.425781 41.070312 19.453125 41.21875 19.453125 C 41.335938 19.453125 41.480469 19.441406 41.667969 19.414062 Z M 41.667969 19.414062 "/>
<path style=" stroke:none;fill-rule:nonzero;fill:rgb(0%,0%,0%);fill-opacity:1;" d="M 45.730469 20.292969 L 45.730469 12.246094 L 46.707031 12.246094 L 46.707031 20.292969 Z M 45.730469 20.292969 "/>
<path style=" stroke:none;fill-rule:nonzero;fill:rgb(0%,0%,0%);fill-opacity:1;" d="M 52.058594 19.570312 C 51.691406 19.882812 51.339844 20.105469 51.003906 20.234375 C 50.660156 20.359375 50.300781 20.429688 49.910156 20.429688 C 49.269531 20.429688 48.777344 20.273438 48.425781 19.960938 C 48.082031 19.648438 47.917969 19.246094 47.917969 18.75 C 47.917969 18.464844 47.980469 18.203125 48.113281 17.96875 C 48.238281 17.734375 48.410156 17.546875 48.621094 17.402344 C 48.824219 17.257812 49.058594 17.148438 49.324219 17.070312 C 49.519531 17.03125 49.8125 16.984375 50.203125 16.933594 C 51.007812 16.84375 51.597656 16.726562 51.980469 16.582031 C 51.980469 16.453125 51.980469 16.367188 51.980469 16.328125 C 51.980469 15.925781 51.886719 15.644531 51.707031 15.488281 C 51.441406 15.253906 51.066406 15.136719 50.574219 15.136719 C 50.105469 15.136719 49.757812 15.222656 49.539062 15.390625 C 49.3125 15.546875 49.152344 15.832031 49.050781 16.25 L 48.09375 16.132812 C 48.171875 15.714844 48.308594 15.382812 48.503906 15.136719 C 48.707031 14.875 49 14.679688 49.382812 14.550781 C 49.773438 14.40625 50.210938 14.335938 50.710938 14.335938 C 51.21875 14.335938 51.617188 14.394531 51.921875 14.511719 C 52.234375 14.628906 52.457031 14.777344 52.605469 14.960938 C 52.761719 15.128906 52.863281 15.351562 52.917969 15.625 C 52.957031 15.792969 52.976562 16.09375 52.976562 16.523438 L 52.976562 17.851562 C 52.976562 18.761719 52.996094 19.34375 53.035156 19.589844 C 53.074219 19.835938 53.15625 20.070312 53.289062 20.292969 L 52.253906 20.292969 C 52.144531 20.085938 52.082031 19.84375 52.058594 19.570312 Z M 51.980469 17.363281 C 51.613281 17.507812 51.070312 17.628906 50.359375 17.734375 C 49.953125 17.800781 49.664062 17.871094 49.5 17.949219 C 49.328125 18.015625 49.195312 18.117188 49.109375 18.261719 C 49.015625 18.40625 48.972656 18.5625 48.972656 18.730469 C 48.972656 18.992188 49.070312 19.210938 49.265625 19.394531 C 49.460938 19.5625 49.753906 19.648438 50.144531 19.648438 C 50.519531 19.648438 50.855469 19.5625 51.160156 19.394531 C 51.457031 19.226562 51.675781 18.996094 51.824219 18.710938 C 51.925781 18.488281 51.980469 18.164062 51.980469 17.734375 Z M 51.980469 17.363281 "/>
<path style=" stroke:none;fill-rule:nonzero;fill:rgb(0%,0%,0%);fill-opacity:1;" d="M 54.46875 22.539062 L 54.351562 21.621094 C 54.570312 21.667969 54.761719 21.699219 54.917969 21.699219 C 55.136719 21.699219 55.3125 21.660156 55.445312 21.582031 C 55.570312 21.511719 55.683594 21.414062 55.777344 21.289062 C 55.824219 21.179688 55.921875 20.9375 56.070312 20.546875 C 56.09375 20.492188 56.128906 20.414062 56.167969 20.3125 L 53.941406 14.453125 L 55.015625 14.453125 L 56.226562 17.832031 C 56.382812 18.261719 56.523438 18.710938 56.65625 19.179688 C 56.757812 18.738281 56.890625 18.292969 57.046875 17.851562 L 58.296875 14.453125 L 59.292969 14.453125 L 57.066406 20.390625 C 56.832031 21.023438 56.644531 21.46875 56.519531 21.71875 C 56.332031 22.039062 56.132812 22.273438 55.914062 22.421875 C 55.6875 22.578125 55.414062 22.65625 55.09375 22.65625 C 54.90625 22.65625 54.703125 22.617188 54.46875 22.539062 Z M 54.46875 22.539062 "/>
<path style=" stroke:none;fill-rule:nonzero;fill:rgb(0%,0%,0%);fill-opacity:1;" d="M 64.117188 18.417969 L 65.152344 18.535156 C 64.980469 19.132812 64.671875 19.601562 64.234375 19.941406 C 63.804688 20.265625 63.246094 20.429688 62.574219 20.429688 C 61.722656 20.429688 61.050781 20.167969 60.542969 19.648438 C 60.042969 19.113281 59.800781 18.371094 59.800781 17.421875 C 59.800781 16.445312 60.054688 15.691406 60.5625 15.15625 C 61.070312 14.609375 61.722656 14.335938 62.535156 14.335938 C 63.316406 14.335938 63.945312 14.601562 64.429688 15.136719 C 64.921875 15.65625 65.171875 16.398438 65.171875 17.363281 C 65.171875 17.429688 65.171875 17.519531 65.171875 17.636719 L 60.816406 17.636719 C 60.855469 18.273438 61.035156 18.761719 61.363281 19.101562 C 61.683594 19.441406 62.09375 19.609375 62.59375 19.609375 C 62.953125 19.609375 63.261719 19.519531 63.511719 19.335938 C 63.769531 19.140625 63.96875 18.835938 64.117188 18.417969 Z M 60.875 16.816406 L 64.136719 16.816406 C 64.097656 16.320312 63.96875 15.949219 63.765625 15.703125 C 63.453125 15.324219 63.042969 15.136719 62.535156 15.136719 C 62.074219 15.136719 61.695312 15.292969 61.382812 15.605469 C 61.078125 15.90625 60.914062 16.308594 60.875 16.816406 Z M 60.875 16.816406 "/>
<path style=" stroke:none;fill-rule:nonzero;fill:rgb(0%,0%,0%);fill-opacity:1;" d="M 66.367188 20.292969 L 66.367188 14.453125 L 67.265625 14.453125 L 67.265625 15.351562 C 67.488281 14.933594 67.695312 14.660156 67.890625 14.53125 C 68.085938 14.402344 68.300781 14.335938 68.535156 14.335938 C 68.859375 14.335938 69.199219 14.441406 69.550781 14.648438 L 69.199219 15.566406 C 68.964844 15.421875 68.722656 15.351562 68.476562 15.351562 C 68.269531 15.351562 68.074219 15.417969 67.890625 15.546875 C 67.722656 15.675781 67.597656 15.859375 67.519531 16.09375 C 67.414062 16.445312 67.363281 16.828125 67.363281 17.246094 L 67.363281 20.292969 Z M 66.367188 20.292969 "/>
<path style="fill-rule:nonzero;fill:rgb(69.803922%,85.098039%,100%);fill-opacity:1;stroke-width:0.929626;stroke-linecap:round;stroke-linejoin:round;stroke:rgb(0%,0%,0%);stroke-opacity:1;stroke-miterlimit:10;" d="M 139.96875 137.765625 C 144.596875 142.39375 144.596875 149.9 139.96875 154.528125 C 135.340625 159.15625 127.8375 159.15625 123.20625 154.528125 C 118.578125 149.9 118.578125 142.39375 123.20625 137.765625 C 127.8375 133.1375 135.340625 133.1375 139.96875 137.765625 " transform="matrix(1.25,0,0,1.25,-28.75,-23.75)"/>
<path style=" stroke:none;fill-rule:nonzero;fill:rgb(0%,0%,0%);fill-opacity:1;" d="M 134.097656 156.824219 C 133.941406 156.042969 133.804688 155.847656 133.53125 155.847656 C 133.257812 155.847656 132.886719 155.925781 132.203125 156.179688 L 132.085938 156.21875 L 132.125 156.394531 L 132.320312 156.335938 C 132.535156 156.277344 132.671875 156.257812 132.75 156.257812 C 133.042969 156.257812 133.121094 156.355469 133.277344 157.019531 L 133.589844 158.425781 L 132.671875 159.734375 C 132.4375 160.066406 132.222656 160.28125 132.085938 160.28125 C 132.027344 160.28125 131.910156 160.242188 131.792969 160.183594 C 131.65625 160.105469 131.539062 160.046875 131.441406 160.046875 C 131.226562 160.046875 131.050781 160.242188 131.050781 160.457031 C 131.050781 160.75 131.265625 160.925781 131.617188 160.925781 C 131.96875 160.925781 132.203125 160.828125 132.691406 160.164062 L 133.6875 158.835938 L 134 160.164062 C 134.136719 160.730469 134.3125 160.925781 134.664062 160.925781 C 135.09375 160.925781 135.386719 160.671875 136.050781 159.65625 L 135.875 159.539062 C 135.777344 159.65625 135.738281 159.734375 135.640625 159.871094 C 135.386719 160.203125 135.25 160.320312 135.113281 160.320312 C 134.957031 160.320312 134.859375 160.164062 134.78125 159.851562 L 134.410156 158.347656 C 134.351562 158.074219 134.3125 157.917969 134.3125 157.839844 C 134.820312 156.980469 135.230469 156.472656 135.425781 156.472656 C 135.699219 156.472656 135.796875 156.667969 136.011719 156.667969 C 136.226562 156.667969 136.382812 156.492188 136.382812 156.257812 C 136.382812 156.023438 136.207031 155.847656 135.933594 155.847656 C 135.445312 155.847656 135.015625 156.257812 134.234375 157.449219 Z M 134.097656 156.824219 "/>
<path style=" stroke:none;fill-rule:nonzero;fill:rgb(0%,0%,0%);fill-opacity:1;" d="M 139.308594 164.558594 L 139.308594 164.441406 C 138.742188 164.441406 138.605469 164.304688 138.605469 163.992188 L 138.605469 159.519531 L 138.527344 159.480469 L 137.199219 160.164062 L 137.199219 160.28125 L 137.394531 160.203125 C 137.53125 160.144531 137.648438 160.105469 137.726562 160.105469 C 137.882812 160.105469 137.960938 160.222656 137.960938 160.476562 L 137.960938 163.855469 C 137.960938 164.265625 137.804688 164.421875 137.238281 164.441406 L 137.238281 164.558594 Z M 139.308594 164.558594 "/>
<path style="fill-rule:nonzero;fill:rgb(69.803922%,85.098039%,100%);fill-opacity:1;stroke-width:0.929626;stroke-linecap:round;stroke-linejoin:round;stroke:rgb(0%,0%,0%);stroke-opacity:1;stroke-miterlimit:10;" d="M 189.125 137.765625 C 193.753125 142.39375 193.753125 149.9 189.125 154.528125 C 184.496875 159.15625 176.99375 159.15625 172.3625 154.528125 C 167.734375 149.9 167.734375 142.39375 172.3625 137.765625 C 176.99375 133.1375 184.496875 133.1375 189.125 137.765625 " transform="matrix(1.25,0,0,1.25,-28.75,-23.75)"/>
<path style=" stroke:none;fill-rule:nonzero;fill:rgb(0%,0%,0%);fill-opacity:1;" d="M 195.539062 156.824219 C 195.382812 156.042969 195.246094 155.847656 194.972656 155.847656 C 194.699219 155.847656 194.328125 155.925781 193.644531 156.179688 L 193.527344 156.21875 L 193.566406 156.394531 L 193.761719 156.335938 C 193.976562 156.277344 194.113281 156.257812 194.191406 156.257812 C 194.484375 156.257812 194.5625 156.355469 194.71875 157.019531 L 195.03125 158.425781 L 194.113281 159.734375 C 193.878906 160.066406 193.664062 160.28125 193.527344 160.28125 C 193.46875 160.28125 193.351562 160.242188 193.234375 160.183594 C 193.097656 160.105469 192.980469 160.046875 192.882812 160.046875 C 192.667969 160.046875 192.492188 160.242188 192.492188 160.457031 C 192.492188 160.75 192.707031 160.925781 193.058594 160.925781 C 193.410156 160.925781 193.644531 160.828125 194.132812 160.164062 L 195.128906 158.835938 L 195.441406 160.164062 C 195.578125 160.730469 195.753906 160.925781 196.105469 160.925781 C 196.535156 160.925781 196.828125 160.671875 197.492188 159.65625 L 197.316406 159.539062 C 197.21875 159.65625 197.179688 159.734375 197.082031 159.871094 C 196.828125 160.203125 196.691406 160.320312 196.554688 160.320312 C 196.398438 160.320312 196.300781 160.164062 196.222656 159.851562 L 195.851562 158.347656 C 195.792969 158.074219 195.753906 157.917969 195.753906 157.839844 C 196.261719 156.980469 196.671875 156.472656 196.867188 156.472656 C 197.140625 156.472656 197.238281 156.667969 197.453125 156.667969 C 197.667969 156.667969 197.824219 156.492188 197.824219 156.257812 C 197.824219 156.023438 197.648438 155.847656 197.375 155.847656 C 196.886719 155.847656 196.457031 156.257812 195.675781 157.449219 Z M 195.539062 156.824219 "/>
<path style=" stroke:none;fill-rule:nonzero;fill:rgb(0%,0%,0%);fill-opacity:1;" d="M 201.355469 163.523438 L 201.257812 163.484375 C 201.003906 163.914062 200.847656 163.992188 200.535156 163.992188 L 198.777344 163.992188 L 200.007812 162.664062 C 200.671875 161.960938 200.964844 161.394531 200.964844 160.808594 C 200.964844 160.066406 200.4375 159.480469 199.578125 159.480469 C 198.660156 159.480469 198.191406 160.105469 198.035156 160.984375 L 198.191406 161.023438 C 198.484375 160.28125 198.738281 160.046875 199.285156 160.046875 C 199.929688 160.046875 200.320312 160.417969 200.320312 161.101562 C 200.320312 161.746094 200.066406 162.3125 199.34375 163.054688 L 198.015625 164.460938 L 198.015625 164.558594 L 200.945312 164.558594 Z M 201.355469 163.523438 "/>
<path style="fill-rule:nonzero;fill:rgb(40%,74.901961%,100%);fill-opacity:1;stroke-width:0.929626;stroke-linecap:round;stroke-linejoin:round;stroke:rgb(0%,0%,0%);stroke-opacity:1;stroke-miterlimit:10;" d="M 170.65 81.059375 C 175.278125 85.6875 175.278125 93.190625 170.65 97.81875 C 166.01875 102.45 158.515625 102.45 153.8875 97.81875 C 149.25625 93.190625 149.25625 85.6875 153.8875 81.059375 C 158.515625 76.43125 166.01875 76.43125 170.65 81.059375 " transform="matrix(1.25,0,0,1.25,-28.75,-23.75)"/>
<path style=" stroke:none;fill-rule:nonzero;fill:rgb(0%,0%,0%);fill-opacity:1;" d="M 174.628906 88.597656 C 174.023438 89.359375 173.886719 89.496094 173.710938 89.496094 C 173.59375 89.496094 173.515625 89.417969 173.515625 89.300781 C 173.515625 89.164062 173.710938 88.480469 173.886719 87.894531 C 174.238281 86.839844 174.433594 86 174.433594 85.726562 C 174.433594 85.296875 174.21875 84.964844 173.710938 84.964844 C 173.007812 84.964844 172.128906 85.6875 171.113281 87.347656 L 172.480469 82.308594 L 172.402344 82.25 C 171.738281 82.386719 171.308594 82.464844 170.625 82.542969 L 170.625 82.71875 L 170.9375 82.71875 C 171.132812 82.71875 171.40625 82.796875 171.40625 82.992188 C 171.40625 83.148438 171.347656 83.34375 171.25 83.695312 L 169.609375 89.925781 L 170.449219 89.925781 C 170.898438 88.1875 171.074219 87.796875 171.523438 87.113281 C 172.109375 86.214844 172.832031 85.53125 173.242188 85.53125 C 173.496094 85.53125 173.554688 85.648438 173.554688 85.824219 C 173.554688 85.863281 173.515625 86.019531 173.476562 86.195312 L 172.851562 88.519531 C 172.714844 89.066406 172.636719 89.417969 172.636719 89.554688 C 172.636719 89.847656 172.832031 90.023438 173.125 90.023438 C 173.710938 90.023438 174.082031 89.730469 174.765625 88.753906 Z M 174.628906 88.597656 "/>
<path style=" stroke:none;fill-rule:nonzero;fill:rgb(0%,0%,0%);fill-opacity:1;" d="M 178.574219 92.640625 L 178.476562 92.601562 C 178.222656 93.03125 178.066406 93.109375 177.753906 93.109375 L 175.996094 93.109375 L 177.226562 91.78125 C 177.890625 91.078125 178.183594 90.511719 178.183594 89.925781 C 178.183594 89.183594 177.65625 88.597656 176.796875 88.597656 C 175.878906 88.597656 175.410156 89.222656 175.253906 90.101562 L 175.410156 90.140625 C 175.703125 89.398438 175.957031 89.164062 176.503906 89.164062 C 177.148438 89.164062 177.539062 89.535156 177.539062 90.21875 C 177.539062 90.863281 177.285156 91.429688 176.5625 92.171875 L 175.234375 93.578125 L 175.234375 93.675781 L 178.164062 93.675781 Z M 178.574219 92.640625 "/>
<path style="fill-rule:nonzero;fill:rgb(69.803922%,85.098039%,100%);fill-opacity:1;stroke-width:0.929626;stroke-linecap:round;stroke-linejoin:round;stroke:rgb(0%,0%,0%);stroke-opacity:1;stroke-miterlimit:10;" d="M 238.278125 137.765625 C 242.90625 142.39375 242.90625 149.9 238.278125 154.528125 C 233.65 159.15625 226.14375 159.15625 221.515625 154.528125 C 216.8875 149.9 216.8875 142.39375 221.515625 137.765625 C 226.14375 133.1375 233.65 133.1375 238.278125 137.765625 " transform="matrix(1.25,0,0,1.25,-28.75,-23.75)"/>
<path style=" stroke:none;fill-rule:nonzero;fill:rgb(0%,0%,0%);fill-opacity:1;" d="M 256.984375 156.824219 C 256.828125 156.042969 256.691406 155.847656 256.417969 155.847656 C 256.144531 155.847656 255.773438 155.925781 255.089844 156.179688 L 254.972656 156.21875 L 255.011719 156.394531 L 255.207031 156.335938 C 255.421875 156.277344 255.558594 156.257812 255.636719 156.257812 C 255.929688 156.257812 256.007812 156.355469 256.164062 157.019531 L 256.476562 158.425781 L 255.558594 159.734375 C 255.324219 160.066406 255.109375 160.28125 254.972656 160.28125 C 254.914062 160.28125 254.796875 160.242188 254.679688 160.183594 C 254.542969 160.105469 254.425781 160.046875 254.328125 160.046875 C 254.113281 160.046875 253.9375 160.242188 253.9375 160.457031 C 253.9375 160.75 254.152344 160.925781 254.503906 160.925781 C 254.855469 160.925781 255.089844 160.828125 255.578125 160.164062 L 256.574219 158.835938 L 256.886719 160.164062 C 257.023438 160.730469 257.199219 160.925781 257.550781 160.925781 C 257.980469 160.925781 258.273438 160.671875 258.9375 159.65625 L 258.761719 159.539062 C 258.664062 159.65625 258.625 159.734375 258.527344 159.871094 C 258.273438 160.203125 258.136719 160.320312 258 160.320312 C 257.84375 160.320312 257.746094 160.164062 257.667969 159.851562 L 257.296875 158.347656 C 257.238281 158.074219 257.199219 157.917969 257.199219 157.839844 C 257.707031 156.980469 258.117188 156.472656 258.3125 156.472656 C 258.585938 156.472656 258.683594 156.667969 258.898438 156.667969 C 259.113281 156.667969 259.269531 156.492188 259.269531 156.257812 C 259.269531 156.023438 259.09375 155.847656 258.820312 155.847656 C 258.332031 155.847656 257.902344 156.257812 257.121094 157.449219 Z M 256.984375 156.824219 "/>
<path style=" stroke:none;fill-rule:nonzero;fill:rgb(0%,0%,0%);fill-opacity:1;" d="M 259.691406 160.730469 C 260.003906 160.183594 260.355469 159.929688 260.824219 159.929688 C 261.3125 159.929688 261.625 160.203125 261.625 160.710938 C 261.625 161.160156 261.390625 161.492188 261.019531 161.707031 C 260.863281 161.804688 260.667969 161.882812 260.394531 161.980469 L 260.394531 162.078125 C 260.824219 162.078125 260.980469 162.097656 261.15625 162.15625 C 261.664062 162.3125 261.9375 162.683594 261.9375 163.25 C 261.9375 163.875 261.507812 164.402344 260.960938 164.402344 C 260.746094 164.402344 260.589844 164.363281 260.316406 164.167969 C 260.101562 164.011719 259.984375 163.972656 259.847656 163.972656 C 259.691406 163.972656 259.554688 164.070312 259.554688 164.226562 C 259.554688 164.5 259.847656 164.65625 260.394531 164.65625 C 261.058594 164.65625 261.761719 164.441406 262.132812 163.972656 C 262.347656 163.679688 262.484375 163.308594 262.484375 162.917969 C 262.484375 162.527344 262.347656 162.175781 262.152344 161.941406 C 261.996094 161.785156 261.859375 161.6875 261.527344 161.550781 C 262.015625 161.257812 262.210938 160.867188 262.210938 160.515625 C 262.210938 159.910156 261.742188 159.480469 261.058594 159.480469 C 260.277344 159.480469 259.789062 159.988281 259.574219 160.710938 Z M 259.691406 160.730469 "/>
<path style="fill-rule:nonzero;fill:rgb(69.803922%,85.098039%,100%);fill-opacity:1;stroke-width:0.929626;stroke-linecap:round;stroke-linejoin:round;stroke:rgb(0%,0%,0%);stroke-opacity:1;stroke-miterlimit:10;" d="M 287.434375 137.06875 C 292.0625 141.7 292.0625 149.203125 287.434375 153.83125 C 282.80625 158.4625 275.3 158.4625 270.671875 153.83125 C 266.04375 149.203125 266.04375 141.7 270.671875 137.06875 C 275.3 132.440625 282.80625 132.440625 287.434375 137.06875 " transform="matrix(1.25,0,0,1.25,-28.75,-23.75)"/>
<path style=" stroke:none;fill-rule:nonzero;fill:rgb(0%,0%,0%);fill-opacity:1;" d="M 318.425781 155.953125 C 318.269531 155.171875 318.132812 154.976562 317.859375 154.976562 C 317.585938 154.976562 317.214844 155.054688 316.53125 155.308594 L 316.414062 155.347656 L 316.453125 155.523438 L 316.648438 155.464844 C 316.863281 155.40625 317 155.386719 317.078125 155.386719 C 317.371094 155.386719 317.449219 155.484375 317.605469 156.148438 L 317.917969 157.554688 L 317 158.863281 C 316.765625 159.195312 316.550781 159.410156 316.414062 159.410156 C 316.355469 159.410156 316.238281 159.371094 316.121094 159.3125 C 315.984375 159.234375 315.867188 159.175781 315.769531 159.175781 C 315.554688 159.175781 315.378906 159.371094 315.378906 159.585938 C 315.378906 159.878906 315.59375 160.054688 315.945312 160.054688 C 316.296875 160.054688 316.53125 159.957031 317.019531 159.292969 L 318.015625 157.964844 L 318.328125 159.292969 C 318.464844 159.859375 318.640625 160.054688 318.992188 160.054688 C 319.421875 160.054688 319.714844 159.800781 320.378906 158.785156 L 320.203125 158.667969 C 320.105469 158.785156 320.066406 158.863281 319.96875 159 C 319.714844 159.332031 319.578125 159.449219 319.441406 159.449219 C 319.285156 159.449219 319.1875 159.292969 319.109375 158.980469 L 318.738281 157.476562 C 318.679688 157.203125 318.640625 157.046875 318.640625 156.96875 C 319.148438 156.109375 319.558594 155.601562 319.753906 155.601562 C 320.027344 155.601562 320.125 155.796875 320.339844 155.796875 C 320.554688 155.796875 320.710938 155.621094 320.710938 155.386719 C 320.710938 155.152344 320.535156 154.976562 320.261719 154.976562 C 319.773438 154.976562 319.34375 155.386719 318.5625 156.578125 Z M 318.425781 155.953125 "/>
<path style=" stroke:none;fill-rule:nonzero;fill:rgb(0%,0%,0%);fill-opacity:1;" d="M 324.242188 162.4375 L 324.242188 161.949219 L 323.460938 161.949219 L 323.460938 158.609375 L 323.128906 158.609375 L 320.785156 161.949219 L 320.785156 162.4375 L 322.875 162.4375 L 322.875 163.6875 L 323.460938 163.6875 L 323.460938 162.4375 Z M 322.875 161.949219 L 321.078125 161.949219 L 322.875 159.390625 Z M 322.875 161.949219 "/>
<path style="fill-rule:nonzero;fill:rgb(40%,74.901961%,100%);fill-opacity:1;stroke-width:0.929626;stroke-linecap:round;stroke-linejoin:round;stroke:rgb(0%,0%,0%);stroke-opacity:1;stroke-miterlimit:10;" d="M 255.475 81.059375 C 260.10625 85.6875 260.10625 93.190625 255.475 97.81875 C 250.846875 102.45 243.34375 102.45 238.715625 97.81875 C 234.0875 93.190625 234.0875 85.6875 238.715625 81.059375 C 243.34375 76.43125 250.846875 76.43125 255.475 81.059375 " transform="matrix(1.25,0,0,1.25,-28.75,-23.75)"/>
<path style=" stroke:none;fill-rule:nonzero;fill:rgb(0%,0%,0%);fill-opacity:1;" d="M 280.667969 88.597656 C 280.0625 89.359375 279.925781 89.496094 279.75 89.496094 C 279.632812 89.496094 279.554688 89.417969 279.554688 89.300781 C 279.554688 89.164062 279.75 88.480469 279.925781 87.894531 C 280.277344 86.839844 280.472656 86 280.472656 85.726562 C 280.472656 85.296875 280.257812 84.964844 279.75 84.964844 C 279.046875 84.964844 278.167969 85.6875 277.152344 87.347656 L 278.519531 82.308594 L 278.441406 82.25 C 277.777344 82.386719 277.347656 82.464844 276.664062 82.542969 L 276.664062 82.71875 L 276.976562 82.71875 C 277.171875 82.71875 277.445312 82.796875 277.445312 82.992188 C 277.445312 83.148438 277.386719 83.34375 277.289062 83.695312 L 275.648438 89.925781 L 276.488281 89.925781 C 276.9375 88.1875 277.113281 87.796875 277.5625 87.113281 C 278.148438 86.214844 278.871094 85.53125 279.28125 85.53125 C 279.535156 85.53125 279.59375 85.648438 279.59375 85.824219 C 279.59375 85.863281 279.554688 86.019531 279.515625 86.195312 L 278.890625 88.519531 C 278.753906 89.066406 278.675781 89.417969 278.675781 89.554688 C 278.675781 89.847656 278.871094 90.023438 279.164062 90.023438 C 279.75 90.023438 280.121094 89.730469 280.804688 88.753906 Z M 280.667969 88.597656 "/>
<path style=" stroke:none;fill-rule:nonzero;fill:rgb(0%,0%,0%);fill-opacity:1;" d="M 284.613281 92.425781 L 284.613281 91.9375 L 283.832031 91.9375 L 283.832031 88.597656 L 283.5 88.597656 L 281.15625 91.9375 L 281.15625 92.425781 L 283.246094 92.425781 L 283.246094 93.675781 L 283.832031 93.675781 L 283.832031 92.425781 Z M 283.246094 91.9375 L 281.449219 91.9375 L 283.246094 89.378906 Z M 283.246094 91.9375 "/>
<path style="fill-rule:nonzero;fill:rgb(40%,74.901961%,100%);fill-opacity:1;stroke-width:0.929626;stroke-linecap:round;stroke-linejoin:round;stroke:rgb(0%,0%,0%);stroke-opacity:1;stroke-miterlimit:10;" d="M 213.0625 81.059375 C 217.690625 85.6875 217.690625 93.190625 213.0625 97.81875 C 208.434375 102.45 200.93125 102.45 196.3 97.81875 C 191.671875 93.190625 191.671875 85.6875 196.3 81.059375 C 200.93125 76.43125 208.434375 76.43125 213.0625 81.059375 " transform="matrix(1.25,0,0,1.25,-28.75,-23.75)"/>
<path style=" stroke:none;fill-rule:nonzero;fill:rgb(0%,0%,0%);fill-opacity:1;" d="M 227.648438 88.597656 C 227.042969 89.359375 226.90625 89.496094 226.730469 89.496094 C 226.613281 89.496094 226.535156 89.417969 226.535156 89.300781 C 226.535156 89.164062 226.730469 88.480469 226.90625 87.894531 C 227.257812 86.839844 227.453125 86 227.453125 85.726562 C 227.453125 85.296875 227.238281 84.964844 226.730469 84.964844 C 226.027344 84.964844 225.148438 85.6875 224.132812 87.347656 L 225.5 82.308594 L 225.421875 82.25 C 224.757812 82.386719 224.328125 82.464844 223.644531 82.542969 L 223.644531 82.71875 L 223.957031 82.71875 C 224.152344 82.71875 224.425781 82.796875 224.425781 82.992188 C 224.425781 83.148438 224.367188 83.34375 224.269531 83.695312 L 222.628906 89.925781 L 223.46875 89.925781 C 223.917969 88.1875 224.09375 87.796875 224.542969 87.113281 C 225.128906 86.214844 225.851562 85.53125 226.261719 85.53125 C 226.515625 85.53125 226.574219 85.648438 226.574219 85.824219 C 226.574219 85.863281 226.535156 86.019531 226.496094 86.195312 L 225.871094 88.519531 C 225.734375 89.066406 225.65625 89.417969 225.65625 89.554688 C 225.65625 89.847656 225.851562 90.023438 226.144531 90.023438 C 226.730469 90.023438 227.101562 89.730469 227.785156 88.753906 Z M 227.648438 88.597656 "/>
<path style=" stroke:none;fill-rule:nonzero;fill:rgb(0%,0%,0%);fill-opacity:1;" d="M 228.488281 89.847656 C 228.800781 89.300781 229.152344 89.046875 229.621094 89.046875 C 230.109375 89.046875 230.421875 89.320312 230.421875 89.828125 C 230.421875 90.277344 230.1875 90.609375 229.816406 90.824219 C 229.660156 90.921875 229.464844 91 229.191406 91.097656 L 229.191406 91.195312 C 229.621094 91.195312 229.777344 91.214844 229.953125 91.273438 C 230.460938 91.429688 230.734375 91.800781 230.734375 92.367188 C 230.734375 92.992188 230.304688 93.519531 229.757812 93.519531 C 229.542969 93.519531 229.386719 93.480469 229.113281 93.285156 C 228.898438 93.128906 228.78125 93.089844 228.644531 93.089844 C 228.488281 93.089844 228.351562 93.1875 228.351562 93.34375 C 228.351562 93.617188 228.644531 93.773438 229.191406 93.773438 C 229.855469 93.773438 230.558594 93.558594 230.929688 93.089844 C 231.144531 92.796875 231.28125 92.425781 231.28125 92.035156 C 231.28125 91.644531 231.144531 91.292969 230.949219 91.058594 C 230.792969 90.902344 230.65625 90.804688 230.324219 90.667969 C 230.8125 90.375 231.007812 89.984375 231.007812 89.632812 C 231.007812 89.027344 230.539062 88.597656 229.855469 88.597656 C 229.074219 88.597656 228.585938 89.105469 228.371094 89.828125 Z M 228.488281 89.847656 "/>
<path style="fill-rule:nonzero;fill:rgb(69.803922%,85.098039%,100%);fill-opacity:1;stroke-width:0.929626;stroke-linecap:round;stroke-linejoin:round;stroke:rgb(0%,0%,0%);stroke-opacity:1;stroke-miterlimit:10;" d="M 163.909375 24.35 C 168.534375 28.98125 168.534375 36.484375 163.909375 41.1125 C 159.28125 45.74375 151.775 45.74375 147.14375 41.1125 C 142.515625 36.484375 142.515625 28.98125 147.14375 24.35 C 151.775 19.721875 159.28125 19.721875 163.909375 24.35 " transform="matrix(1.25,0,0,1.25,-28.75,-23.75)"/>
<path style=" stroke:none;fill-rule:nonzero;fill:rgb(0%,0%,0%);fill-opacity:1;" d="M 166.246094 15.664062 C 166.246094 14.667969 165.5625 14.082031 164.644531 14.082031 C 164.195312 14.082031 163.746094 14.179688 163.296875 14.414062 C 162.125 15.058594 161.285156 16.347656 161.285156 17.597656 C 161.285156 18.574219 161.871094 19.160156 162.925781 19.160156 C 163.667969 19.160156 164.390625 18.886719 165.054688 18.242188 C 165.796875 17.5 166.246094 16.503906 166.246094 15.664062 Z M 165.289062 15.371094 C 165.289062 16.230469 164.976562 17.285156 164.46875 17.988281 C 164.019531 18.613281 163.589844 18.925781 163.101562 18.925781 C 162.574219 18.925781 162.222656 18.574219 162.222656 17.910156 C 162.222656 17.011719 162.535156 16.132812 163.0625 15.332031 C 163.511719 14.667969 164 14.316406 164.488281 14.316406 C 164.976562 14.316406 165.289062 14.6875 165.289062 15.371094 Z M 165.289062 15.371094 "/>
<path style=" stroke:none;fill-rule:nonzero;fill:rgb(0%,0%,0%);fill-opacity:1;" d="M 169.546875 22.792969 L 169.546875 22.675781 C 168.980469 22.675781 168.84375 22.539062 168.84375 22.226562 L 168.84375 17.753906 L 168.765625 17.714844 L 167.4375 18.398438 L 167.4375 18.515625 L 167.632812 18.4375 C 167.769531 18.378906 167.886719 18.339844 167.964844 18.339844 C 168.121094 18.339844 168.199219 18.457031 168.199219 18.710938 L 168.199219 22.089844 C 168.199219 22.5 168.042969 22.65625 167.476562 22.675781 L 167.476562 22.792969 Z M 169.546875 22.792969 "/>
<path style="fill-rule:nonzero;fill:rgb(69.803922%,85.098039%,100%);fill-opacity:1;stroke-width:0.929626;stroke-linecap:round;stroke-linejoin:round;stroke:rgb(0%,0%,0%);stroke-opacity:1;stroke-miterlimit:10;" d="M 213.0625 24.35 C 217.690625 28.98125 217.690625 36.484375 213.0625 41.1125 C 208.434375 45.74375 200.93125 45.74375 196.3 41.1125 C 191.671875 36.484375 191.671875 28.98125 196.3 24.35 C 200.93125 19.721875 208.434375 19.721875 213.0625 24.35 " transform="matrix(1.25,0,0,1.25,-28.75,-23.75)"/>
<path style=" stroke:none;fill-rule:nonzero;fill:rgb(0%,0%,0%);fill-opacity:1;" d="M 227.6875 15.664062 C 227.6875 14.667969 227.003906 14.082031 226.085938 14.082031 C 225.636719 14.082031 225.1875 14.179688 224.738281 14.414062 C 223.566406 15.058594 222.726562 16.347656 222.726562 17.597656 C 222.726562 18.574219 223.3125 19.160156 224.367188 19.160156 C 225.109375 19.160156 225.832031 18.886719 226.496094 18.242188 C 227.238281 17.5 227.6875 16.503906 227.6875 15.664062 Z M 226.730469 15.371094 C 226.730469 16.230469 226.417969 17.285156 225.910156 17.988281 C 225.460938 18.613281 225.03125 18.925781 224.542969 18.925781 C 224.015625 18.925781 223.664062 18.574219 223.664062 17.910156 C 223.664062 17.011719 223.976562 16.132812 224.503906 15.332031 C 224.953125 14.667969 225.441406 14.316406 225.929688 14.316406 C 226.417969 14.316406 226.730469 14.6875 226.730469 15.371094 Z M 226.730469 15.371094 "/>
<path style=" stroke:none;fill-rule:nonzero;fill:rgb(0%,0%,0%);fill-opacity:1;" d="M 231.59375 21.757812 L 231.496094 21.71875 C 231.242188 22.148438 231.085938 22.226562 230.773438 22.226562 L 229.015625 22.226562 L 230.246094 20.898438 C 230.910156 20.195312 231.203125 19.628906 231.203125 19.042969 C 231.203125 18.300781 230.675781 17.714844 229.816406 17.714844 C 228.898438 17.714844 228.429688 18.339844 228.273438 19.21875 L 228.429688 19.257812 C 228.722656 18.515625 228.976562 18.28125 229.523438 18.28125 C 230.167969 18.28125 230.558594 18.652344 230.558594 19.335938 C 230.558594 19.980469 230.304688 20.546875 229.582031 21.289062 L 228.253906 22.695312 L 228.253906 22.792969 L 231.183594 22.792969 Z M 231.59375 21.757812 "/>
<path style="fill-rule:nonzero;fill:rgb(69.803922%,85.098039%,100%);fill-opacity:1;stroke-width:0.929626;stroke-linecap:round;stroke-linejoin:round;stroke:rgb(0%,0%,0%);stroke-opacity:1;stroke-miterlimit:10;" d="M 262.215625 23.65625 C 266.84375 28.284375 266.84375 35.7875 262.215625 40.41875 C 257.5875 45.046875 250.08125 45.046875 245.453125 40.41875 C 240.825 35.7875 240.825 28.284375 245.453125 23.65625 C 250.08125 19.028125 257.5875 19.028125 262.215625 23.65625 " transform="matrix(1.25,0,0,1.25,-28.75,-23.75)"/>
<path style=" stroke:none;fill-rule:nonzero;fill:rgb(0%,0%,0%);fill-opacity:1;" d="M 289.128906 14.789062 C 289.128906 13.792969 288.445312 13.207031 287.527344 13.207031 C 287.078125 13.207031 286.628906 13.304688 286.179688 13.539062 C 285.007812 14.183594 284.167969 15.472656 284.167969 16.722656 C 284.167969 17.699219 284.753906 18.285156 285.808594 18.285156 C 286.550781 18.285156 287.273438 18.011719 287.9375 17.367188 C 288.679688 16.625 289.128906 15.628906 289.128906 14.789062 Z M 288.171875 14.496094 C 288.171875 15.355469 287.859375 16.410156 287.351562 17.113281 C 286.902344 17.738281 286.472656 18.050781 285.984375 18.050781 C 285.457031 18.050781 285.105469 17.699219 285.105469 17.035156 C 285.105469 16.136719 285.417969 15.257812 285.945312 14.457031 C 286.394531 13.792969 286.882812 13.441406 287.371094 13.441406 C 287.859375 13.441406 288.171875 13.8125 288.171875 14.496094 Z M 288.171875 14.496094 "/>
<path style=" stroke:none;fill-rule:nonzero;fill:rgb(0%,0%,0%);fill-opacity:1;" d="M 289.929688 18.089844 C 290.242188 17.542969 290.59375 17.289062 291.0625 17.289062 C 291.550781 17.289062 291.863281 17.5625 291.863281 18.070312 C 291.863281 18.519531 291.628906 18.851562 291.257812 19.066406 C 291.101562 19.164062 290.90625 19.242188 290.632812 19.339844 L 290.632812 19.4375 C 291.0625 19.4375 291.21875 19.457031 291.394531 19.515625 C 291.902344 19.671875 292.175781 20.042969 292.175781 20.609375 C 292.175781 21.234375 291.746094 21.761719 291.199219 21.761719 C 290.984375 21.761719 290.828125 21.722656 290.554688 21.527344 C 290.339844 21.371094 290.222656 21.332031 290.085938 21.332031 C 289.929688 21.332031 289.792969 21.429688 289.792969 21.585938 C 289.792969 21.859375 290.085938 22.015625 290.632812 22.015625 C 291.296875 22.015625 292 21.800781 292.371094 21.332031 C 292.585938 21.039062 292.722656 20.667969 292.722656 20.277344 C 292.722656 19.886719 292.585938 19.535156 292.390625 19.300781 C 292.234375 19.144531 292.097656 19.046875 291.765625 18.910156 C 292.253906 18.617188 292.449219 18.226562 292.449219 17.875 C 292.449219 17.269531 291.980469 16.839844 291.296875 16.839844 C 290.515625 16.839844 290.027344 17.347656 289.8125 18.070312 Z M 289.929688 18.089844 "/>
<path style="fill-rule:nonzero;fill:rgb(40%,74.901961%,100%);fill-opacity:1;stroke-width:0.929626;stroke-linecap:round;stroke-linejoin:round;stroke:rgb(0%,0%,0%);stroke-opacity:1;stroke-miterlimit:10;" d="M 128.234375 81.059375 C 132.8625 85.6875 132.8625 93.190625 128.234375 97.81875 C 123.60625 102.45 116.1 102.45 111.471875 97.81875 C 106.84375 93.190625 106.84375 85.6875 111.471875 81.059375 C 116.1 76.43125 123.60625 76.43125 128.234375 81.059375 " transform="matrix(1.25,0,0,1.25,-28.75,-23.75)"/>
<path style=" stroke:none;fill-rule:nonzero;fill:rgb(0%,0%,0%);fill-opacity:1;" d="M 121.613281 88.597656 C 121.007812 89.359375 120.871094 89.496094 120.695312 89.496094 C 120.578125 89.496094 120.5 89.417969 120.5 89.300781 C 120.5 89.164062 120.695312 88.480469 120.871094 87.894531 C 121.222656 86.839844 121.417969 86 121.417969 85.726562 C 121.417969 85.296875 121.203125 84.964844 120.695312 84.964844 C 119.992188 84.964844 119.113281 85.6875 118.097656 87.347656 L 119.464844 82.308594 L 119.386719 82.25 C 118.722656 82.386719 118.292969 82.464844 117.609375 82.542969 L 117.609375 82.71875 L 117.921875 82.71875 C 118.117188 82.71875 118.390625 82.796875 118.390625 82.992188 C 118.390625 83.148438 118.332031 83.34375 118.234375 83.695312 L 116.59375 89.925781 L 117.433594 89.925781 C 117.882812 88.1875 118.058594 87.796875 118.507812 87.113281 C 119.09375 86.214844 119.816406 85.53125 120.226562 85.53125 C 120.480469 85.53125 120.539062 85.648438 120.539062 85.824219 C 120.539062 85.863281 120.5 86.019531 120.460938 86.195312 L 119.835938 88.519531 C 119.699219 89.066406 119.621094 89.417969 119.621094 89.554688 C 119.621094 89.847656 119.816406 90.023438 120.109375 90.023438 C 120.695312 90.023438 121.066406 89.730469 121.75 88.753906 Z M 121.613281 88.597656 "/>
<path style=" stroke:none;fill-rule:nonzero;fill:rgb(0%,0%,0%);fill-opacity:1;" d="M 124.953125 93.675781 L 124.953125 93.558594 C 124.386719 93.558594 124.25 93.421875 124.25 93.109375 L 124.25 88.636719 L 124.171875 88.597656 L 122.84375 89.28125 L 122.84375 89.398438 L 123.039062 89.320312 C 123.175781 89.261719 123.292969 89.222656 123.371094 89.222656 C 123.527344 89.222656 123.605469 89.339844 123.605469 89.59375 L 123.605469 92.972656 C 123.605469 93.382812 123.449219 93.539062 122.882812 93.558594 L 122.882812 93.675781 Z M 124.953125 93.675781 "/>
<path style="fill-rule:nonzero;fill:rgb(40%,74.901961%,100%);fill-opacity:1;stroke-width:0.929626;stroke-linecap:round;stroke-linejoin:round;stroke:rgb(0%,0%,0%);stroke-opacity:1;stroke-miterlimit:10;" d="M 297.890625 81.059375 C 302.51875 85.6875 302.51875 93.190625 297.890625 97.81875 C 293.2625 102.45 285.75625 102.45 281.128125 97.81875 C 276.5 93.190625 276.5 85.6875 281.128125 81.059375 C 285.75625 76.43125 293.2625 76.43125 297.890625 81.059375 " transform="matrix(1.25,0,0,1.25,-28.75,-23.75)"/>
<path style=" stroke:none;fill-rule:nonzero;fill:rgb(0%,0%,0%);fill-opacity:1;" d="M 333.683594 88.597656 C 333.078125 89.359375 332.941406 89.496094 332.765625 89.496094 C 332.648438 89.496094 332.570312 89.417969 332.570312 89.300781 C 332.570312 89.164062 332.765625 88.480469 332.941406 87.894531 C 333.292969 86.839844 333.488281 86 333.488281 85.726562 C 333.488281 85.296875 333.273438 84.964844 332.765625 84.964844 C 332.0625 84.964844 331.183594 85.6875 330.167969 87.347656 L 331.535156 82.308594 L 331.457031 82.25 C 330.792969 82.386719 330.363281 82.464844 329.679688 82.542969 L 329.679688 82.71875 L 329.992188 82.71875 C 330.1875 82.71875 330.460938 82.796875 330.460938 82.992188 C 330.460938 83.148438 330.402344 83.34375 330.304688 83.695312 L 328.664062 89.925781 L 329.503906 89.925781 C 329.953125 88.1875 330.128906 87.796875 330.578125 87.113281 C 331.164062 86.214844 331.886719 85.53125 332.296875 85.53125 C 332.550781 85.53125 332.609375 85.648438 332.609375 85.824219 C 332.609375 85.863281 332.570312 86.019531 332.53125 86.195312 L 331.90625 88.519531 C 331.769531 89.066406 331.691406 89.417969 331.691406 89.554688 C 331.691406 89.847656 331.886719 90.023438 332.179688 90.023438 C 332.765625 90.023438 333.136719 89.730469 333.820312 88.753906 Z M 333.683594 88.597656 "/>
<path style=" stroke:none;fill-rule:nonzero;fill:rgb(0%,0%,0%);fill-opacity:1;" d="M 337.355469 88.558594 L 337.296875 88.519531 C 337.179688 88.675781 337.101562 88.714844 336.925781 88.714844 L 335.382812 88.714844 L 334.5625 90.492188 C 334.5625 90.492188 334.5625 90.511719 334.5625 90.53125 C 334.5625 90.570312 334.582031 90.589844 334.640625 90.589844 C 335.363281 90.589844 335.890625 90.824219 336.242188 91.117188 C 336.574219 91.371094 336.75 91.761719 336.75 92.230469 C 336.75 92.875 336.261719 93.5 335.734375 93.5 C 335.578125 93.5 335.402344 93.441406 335.207031 93.265625 C 334.953125 93.070312 334.816406 93.03125 334.640625 93.03125 C 334.425781 93.03125 334.308594 93.128906 334.308594 93.324219 C 334.308594 93.597656 334.699219 93.773438 335.265625 93.773438 C 335.773438 93.773438 336.183594 93.675781 336.535156 93.421875 C 337.042969 93.03125 337.277344 92.582031 337.277344 91.859375 C 337.277344 91.449219 337.199219 91.175781 337.003906 90.902344 C 336.574219 90.316406 336.203125 90.140625 335.128906 89.945312 L 335.441406 89.300781 L 336.886719 89.300781 C 337.003906 89.300781 337.0625 89.261719 337.082031 89.203125 Z M 337.355469 88.558594 "/>
<path style="fill:none;stroke-width:0.929626;stroke-linecap:round;stroke-linejoin:round;stroke:rgb(0%,0%,0%);stroke-opacity:1;stroke-miterlimit:10;" d="M 126.1625 79.40625 L 146.275 47.440625 " transform="matrix(1.25,0,0,1.25,-28.75,-23.75)"/>
<path style="fill:none;stroke-width:0.929626;stroke-linecap:butt;stroke-linejoin:miter;stroke:rgb(0%,0%,0%);stroke-opacity:1;stroke-miterlimit:10;" d="M 148.253125 44.29375 L 146.275 47.440625 M 145.09375 46.7 L 148.253125 44.29375 L 147.45625 48.184375 " transform="matrix(1.25,0,0,1.25,-28.75,-23.75)"/>
<path style="fill:none;stroke-width:0.929626;stroke-linecap:round;stroke-linejoin:round;stroke:rgb(0%,0%,0%);stroke-opacity:1;stroke-miterlimit:10;" d="M 129.70625 82.85 L 190.2375 42.390625 " transform="matrix(1.25,0,0,1.25,-28.75,-23.75)"/>
<path style="fill:none;stroke-width:0.929626;stroke-linecap:butt;stroke-linejoin:miter;stroke:rgb(0%,0%,0%);stroke-opacity:1;stroke-miterlimit:10;" d="M 193.328125 40.325 L 190.2375 42.390625 M 189.4625 41.23125 L 193.328125 40.325 L 191.0125 43.546875 " transform="matrix(1.25,0,0,1.25,-28.75,-23.75)"/>
<path style="fill:none;stroke-width:0.929626;stroke-linecap:round;stroke-linejoin:round;stroke:rgb(0%,0%,0%);stroke-opacity:1;stroke-miterlimit:10;" d="M 130.75 84.76875 L 237.8625 38.878125 " transform="matrix(1.25,0,0,1.25,-28.75,-23.75)"/>
<path style="fill:none;stroke-width:0.929626;stroke-linecap:butt;stroke-linejoin:miter;stroke:rgb(0%,0%,0%);stroke-opacity:1;stroke-miterlimit:10;" d="M 241.28125 37.4125 L 237.8625 38.878125 M 237.3125 37.596875 L 241.28125 37.4125 L 238.4125 40.159375 " transform="matrix(1.25,0,0,1.25,-28.75,-23.75)"/>
<path style="fill:none;stroke-width:0.929626;stroke-linecap:round;stroke-linejoin:round;stroke:rgb(0%,0%,0%);stroke-opacity:1;stroke-miterlimit:10;" d="M 160.86875 77.66875 L 157.578125 49.984375 " transform="matrix(1.25,0,0,1.25,-28.75,-23.75)"/>
<path style="fill:none;stroke-width:0.929626;stroke-linecap:butt;stroke-linejoin:miter;stroke:rgb(0%,0%,0%);stroke-opacity:1;stroke-miterlimit:10;" d="M 157.140625 46.29375 L 157.578125 49.984375 M 156.190625 50.15 L 157.140625 46.29375 L 158.9625 49.81875 " transform="matrix(1.25,0,0,1.25,-28.75,-23.75)"/>
<path style="fill:none;stroke-width:0.929626;stroke-linecap:round;stroke-linejoin:round;stroke:rgb(0%,0%,0%);stroke-opacity:1;stroke-miterlimit:10;" d="M 169.36875 79.95 L 194.275 46.64375 " transform="matrix(1.25,0,0,1.25,-28.75,-23.75)"/>
<path style="fill:none;stroke-width:0.929626;stroke-linecap:butt;stroke-linejoin:miter;stroke:rgb(0%,0%,0%);stroke-opacity:1;stroke-miterlimit:10;" d="M 196.503125 43.66875 L 194.275 46.64375 M 193.15625 45.8125 L 196.503125 43.66875 L 195.390625 47.48125 " transform="matrix(1.25,0,0,1.25,-28.75,-23.75)"/>
<path style="fill:none;stroke-width:0.929626;stroke-linecap:round;stroke-linejoin:round;stroke:rgb(0%,0%,0%);stroke-opacity:1;stroke-miterlimit:10;" d="M 172.3125 83.14375 L 239.1125 41.265625 " transform="matrix(1.25,0,0,1.25,-28.75,-23.75)"/>
<path style="fill:none;stroke-width:0.929626;stroke-linecap:butt;stroke-linejoin:miter;stroke:rgb(0%,0%,0%);stroke-opacity:1;stroke-miterlimit:10;" d="M 242.265625 39.2875 L 239.1125 41.265625 M 238.371875 40.08125 L 242.265625 39.2875 L 239.85625 42.44375 " transform="matrix(1.25,0,0,1.25,-28.75,-23.75)"/>
<path style="fill:none;stroke-width:0.929626;stroke-linecap:round;stroke-linejoin:round;stroke:rgb(0%,0%,0%);stroke-opacity:1;stroke-miterlimit:10;" d="M 196.91875 80.484375 L 166.90625 45.859375 " transform="matrix(1.25,0,0,1.25,-28.75,-23.75)"/>
<path style="fill:none;stroke-width:0.929626;stroke-linecap:butt;stroke-linejoin:miter;stroke:rgb(0%,0%,0%);stroke-opacity:1;stroke-miterlimit:10;" d="M 164.471875 43.05 L 166.90625 45.859375 M 165.85 46.775 L 164.471875 43.05 L 167.9625 44.95 " transform="matrix(1.25,0,0,1.25,-28.75,-23.75)"/>
<path style="fill:none;stroke-width:0.929626;stroke-linecap:round;stroke-linejoin:round;stroke:rgb(0%,0%,0%);stroke-opacity:1;stroke-miterlimit:10;" d="M 204.68125 77.5875 L 204.68125 50.10625 " transform="matrix(1.25,0,0,1.25,-28.75,-23.75)"/>
<path style="fill:none;stroke-width:0.929626;stroke-linecap:butt;stroke-linejoin:miter;stroke:rgb(0%,0%,0%);stroke-opacity:1;stroke-miterlimit:10;" d="M 204.68125 46.3875 L 204.68125 50.10625 M 203.284375 50.10625 L 204.68125 46.3875 L 206.075 50.10625 " transform="matrix(1.25,0,0,1.25,-28.75,-23.75)"/>
<path style="fill:none;stroke-width:0.929626;stroke-linecap:round;stroke-linejoin:round;stroke:rgb(0%,0%,0%);stroke-opacity:1;stroke-miterlimit:10;" d="M 212.390625 80.4375 L 242.534375 45.23125 " transform="matrix(1.25,0,0,1.25,-28.75,-23.75)"/>
<path style="fill:none;stroke-width:0.929626;stroke-linecap:butt;stroke-linejoin:miter;stroke:rgb(0%,0%,0%);stroke-opacity:1;stroke-miterlimit:10;" d="M 244.953125 42.40625 L 242.534375 45.23125 M 241.475 44.325 L 244.953125 42.40625 L 243.59375 46.140625 " transform="matrix(1.25,0,0,1.25,-28.75,-23.75)"/>
<path style="fill:none;stroke-width:0.929626;stroke-linecap:round;stroke-linejoin:round;stroke:rgb(0%,0%,0%);stroke-opacity:1;stroke-miterlimit:10;" d="M 237.015625 83.2 L 170.3 41.88125 " transform="matrix(1.25,0,0,1.25,-28.75,-23.75)"/>
<path style="fill:none;stroke-width:0.929626;stroke-linecap:butt;stroke-linejoin:miter;stroke:rgb(0%,0%,0%);stroke-opacity:1;stroke-miterlimit:10;" d="M 167.1375 39.921875 L 170.3 41.88125 M 169.565625 43.065625 L 167.1375 39.921875 L 171.034375 40.69375 " transform="matrix(1.25,0,0,1.25,-28.75,-23.75)"/>
<path style="fill:none;stroke-width:0.929626;stroke-linecap:round;stroke-linejoin:round;stroke:rgb(0%,0%,0%);stroke-opacity:1;stroke-miterlimit:10;" d="M 239.996875 79.95 L 215.0875 46.64375 " transform="matrix(1.25,0,0,1.25,-28.75,-23.75)"/>
<path style="fill:none;stroke-width:0.929626;stroke-linecap:butt;stroke-linejoin:miter;stroke:rgb(0%,0%,0%);stroke-opacity:1;stroke-miterlimit:10;" d="M 212.859375 43.66875 L 215.0875 46.64375 M 213.971875 47.48125 L 212.859375 43.66875 L 216.203125 45.8125 " transform="matrix(1.25,0,0,1.25,-28.75,-23.75)"/>
<path style="fill:none;stroke-width:0.929626;stroke-linecap:round;stroke-linejoin:round;stroke:rgb(0%,0%,0%);stroke-opacity:1;stroke-miterlimit:10;" d="M 248.475 77.66875 L 251.809375 49.2875 " transform="matrix(1.25,0,0,1.25,-28.75,-23.75)"/>
<path style="fill:none;stroke-width:0.929626;stroke-linecap:butt;stroke-linejoin:miter;stroke:rgb(0%,0%,0%);stroke-opacity:1;stroke-miterlimit:10;" d="M 252.24375 45.596875 L 251.809375 49.2875 M 250.425 49.128125 L 252.24375 45.596875 L 253.19375 49.453125 " transform="matrix(1.25,0,0,1.25,-28.75,-23.75)"/>
<path style="fill:none;stroke-width:0.929626;stroke-linecap:round;stroke-linejoin:round;stroke:rgb(0%,0%,0%);stroke-opacity:1;stroke-miterlimit:10;" d="M 278.590625 84.81875 L 171.528125 39.503125 " transform="matrix(1.25,0,0,1.25,-28.75,-23.75)"/>
<path style="fill:none;stroke-width:0.929626;stroke-linecap:butt;stroke-linejoin:miter;stroke:rgb(0%,0%,0%);stroke-opacity:1;stroke-miterlimit:10;" d="M 168.10625 38.05625 L 171.528125 39.503125 M 170.984375 40.7875 L 168.10625 38.05625 L 172.075 38.221875 " transform="matrix(1.25,0,0,1.25,-28.75,-23.75)"/>
<path style="fill:none;stroke-width:0.929626;stroke-linecap:round;stroke-linejoin:round;stroke:rgb(0%,0%,0%);stroke-opacity:1;stroke-miterlimit:10;" d="M 279.653125 82.85 L 219.125 42.390625 " transform="matrix(1.25,0,0,1.25,-28.75,-23.75)"/>
<path style="fill:none;stroke-width:0.929626;stroke-linecap:butt;stroke-linejoin:miter;stroke:rgb(0%,0%,0%);stroke-opacity:1;stroke-miterlimit:10;" d="M 216.034375 40.325 L 219.125 42.390625 M 218.35 43.546875 L 216.034375 40.325 L 219.903125 41.23125 " transform="matrix(1.25,0,0,1.25,-28.75,-23.75)"/>
<path style="fill:none;stroke-width:0.929626;stroke-linecap:round;stroke-linejoin:round;stroke:rgb(0%,0%,0%);stroke-opacity:1;stroke-miterlimit:10;" d="M 283.25 79.371875 L 263.00625 46.79375 " transform="matrix(1.25,0,0,1.25,-28.75,-23.75)"/>
<path style="fill:none;stroke-width:0.929626;stroke-linecap:butt;stroke-linejoin:miter;stroke:rgb(0%,0%,0%);stroke-opacity:1;stroke-miterlimit:10;" d="M 261.04375 43.6375 L 263.00625 46.79375 M 261.81875 47.53125 L 261.04375 43.6375 L 264.190625 46.059375 " transform="matrix(1.25,0,0,1.25,-28.75,-23.75)"/>
<path style="fill:none;stroke-width:0.929626;stroke-linecap:round;stroke-linejoin:round;stroke:rgb(0%,0%,0%);stroke-opacity:1;stroke-miterlimit:10;" d="M 129.1875 134.5375 L 123.375 106.453125 " transform="matrix(1.25,0,0,1.25,-28.75,-23.75)"/>
<path style="fill:none;stroke-width:0.929626;stroke-linecap:butt;stroke-linejoin:miter;stroke:rgb(0%,0%,0%);stroke-opacity:1;stroke-miterlimit:10;" d="M 122.621875 102.8125 L 123.375 106.453125 M 122.00625 106.734375 L 122.621875 102.8125 L 124.7375 106.171875 " transform="matrix(1.25,0,0,1.25,-28.75,-23.75)"/>
<path style="fill:none;stroke-width:0.929626;stroke-linecap:round;stroke-linejoin:round;stroke:rgb(0%,0%,0%);stroke-opacity:1;stroke-miterlimit:10;" d="M 137.23125 135.71875 L 154 104.721875 " transform="matrix(1.25,0,0,1.25,-28.75,-23.75)"/>
<path style="fill:none;stroke-width:0.929626;stroke-linecap:butt;stroke-linejoin:miter;stroke:rgb(0%,0%,0%);stroke-opacity:1;stroke-miterlimit:10;" d="M 155.76875 101.453125 L 154 104.721875 M 152.775 104.059375 L 155.76875 101.453125 L 155.225 105.3875 " transform="matrix(1.25,0,0,1.25,-28.75,-23.75)"/>
<path style="fill:none;stroke-width:0.929626;stroke-linecap:round;stroke-linejoin:round;stroke:rgb(0%,0%,0%);stroke-opacity:1;stroke-miterlimit:10;" d="M 140.95625 138.88125 L 190.953125 100.090625 " transform="matrix(1.25,0,0,1.25,-28.75,-23.75)"/>
<path style="fill:none;stroke-width:0.929626;stroke-linecap:butt;stroke-linejoin:miter;stroke:rgb(0%,0%,0%);stroke-opacity:1;stroke-miterlimit:10;" d="M 193.890625 97.8125 L 190.953125 100.090625 M 190.096875 98.9875 L 193.890625 97.8125 L 191.809375 101.190625 " transform="matrix(1.25,0,0,1.25,-28.75,-23.75)"/>
<path style="fill:none;stroke-width:0.929626;stroke-linecap:round;stroke-linejoin:round;stroke:rgb(0%,0%,0%);stroke-opacity:1;stroke-miterlimit:10;" d="M 142.23125 140.921875 L 231.496875 97.096875 " transform="matrix(1.25,0,0,1.25,-28.75,-23.75)"/>
<path style="fill:none;stroke-width:0.929626;stroke-linecap:butt;stroke-linejoin:miter;stroke:rgb(0%,0%,0%);stroke-opacity:1;stroke-miterlimit:10;" d="M 234.8375 95.45625 L 231.496875 97.096875 M 230.88125 95.846875 L 234.8375 95.45625 L 232.1125 98.346875 " transform="matrix(1.25,0,0,1.25,-28.75,-23.75)"/>
<path style="fill:none;stroke-width:0.929626;stroke-linecap:round;stroke-linejoin:round;stroke:rgb(0%,0%,0%);stroke-opacity:1;stroke-miterlimit:10;" d="M 142.746875 142.140625 L 273.15625 95.3125 " transform="matrix(1.25,0,0,1.25,-28.75,-23.75)"/>
<path style="fill:none;stroke-width:0.929626;stroke-linecap:butt;stroke-linejoin:miter;stroke:rgb(0%,0%,0%);stroke-opacity:1;stroke-miterlimit:10;" d="M 276.65625 94.05625 L 273.15625 95.3125 M 272.684375 94 L 276.65625 94.05625 L 273.628125 96.625 " transform="matrix(1.25,0,0,1.25,-28.75,-23.75)"/>
<path style="fill:none;stroke-width:0.929626;stroke-linecap:round;stroke-linejoin:round;stroke:rgb(0%,0%,0%);stroke-opacity:1;stroke-miterlimit:10;" d="M 172.06875 138.06875 L 132.565625 101.28125 " transform="matrix(1.25,0,0,1.25,-28.75,-23.75)"/>
<path style="fill:none;stroke-width:0.929626;stroke-linecap:butt;stroke-linejoin:miter;stroke:rgb(0%,0%,0%);stroke-opacity:1;stroke-miterlimit:10;" d="M 129.84375 98.746875 L 132.565625 101.28125 M 131.61875 102.3 L 129.84375 98.746875 L 133.515625 100.25625 " transform="matrix(1.25,0,0,1.25,-28.75,-23.75)"/>
<path style="fill:none;stroke-width:0.929626;stroke-linecap:round;stroke-linejoin:round;stroke:rgb(0%,0%,0%);stroke-opacity:1;stroke-miterlimit:10;" d="M 177.06875 134.875 L 167.65 105.9625 " transform="matrix(1.25,0,0,1.25,-28.75,-23.75)"/>
<path style="fill:none;stroke-width:0.929626;stroke-linecap:butt;stroke-linejoin:miter;stroke:rgb(0%,0%,0%);stroke-opacity:1;stroke-miterlimit:10;" d="M 166.496875 102.425 L 167.65 105.9625 M 166.325 106.390625 L 166.496875 102.425 L 168.975 105.528125 " transform="matrix(1.25,0,0,1.25,-28.75,-23.75)"/>
<path style="fill:none;stroke-width:0.929626;stroke-linecap:round;stroke-linejoin:round;stroke:rgb(0%,0%,0%);stroke-opacity:1;stroke-miterlimit:10;" d="M 185.35625 135.225 L 197.921875 105.45 " transform="matrix(1.25,0,0,1.25,-28.75,-23.75)"/>
<path style="fill:none;stroke-width:0.929626;stroke-linecap:butt;stroke-linejoin:miter;stroke:rgb(0%,0%,0%);stroke-opacity:1;stroke-miterlimit:10;" d="M 199.371875 102.025 L 197.921875 105.45 M 196.640625 104.90625 L 199.371875 102.025 L 199.20625 105.99375 " transform="matrix(1.25,0,0,1.25,-28.75,-23.75)"/>
<path style="fill:none;stroke-width:0.929626;stroke-linecap:round;stroke-linejoin:round;stroke:rgb(0%,0%,0%);stroke-opacity:1;stroke-miterlimit:10;" d="M 189.753125 138.44375 L 233.8875 100.725 " transform="matrix(1.25,0,0,1.25,-28.75,-23.75)"/>
<path style="fill:none;stroke-width:0.929626;stroke-linecap:butt;stroke-linejoin:miter;stroke:rgb(0%,0%,0%);stroke-opacity:1;stroke-miterlimit:10;" d="M 236.715625 98.3125 L 233.8875 100.725 M 232.98125 99.66875 L 236.715625 98.3125 L 234.79375 101.7875 " transform="matrix(1.25,0,0,1.25,-28.75,-23.75)"/>
<path style="fill:none;stroke-width:0.929626;stroke-linecap:round;stroke-linejoin:round;stroke:rgb(0%,0%,0%);stroke-opacity:1;stroke-miterlimit:10;" d="M 191.25625 140.66875 L 274.1 97.471875 " transform="matrix(1.25,0,0,1.25,-28.75,-23.75)"/>
<path style="fill:none;stroke-width:0.929626;stroke-linecap:butt;stroke-linejoin:miter;stroke:rgb(0%,0%,0%);stroke-opacity:1;stroke-miterlimit:10;" d="M 277.4 95.753125 L 274.1 97.471875 M 273.45625 96.2375 L 277.4 95.753125 L 274.746875 98.7125 " transform="matrix(1.25,0,0,1.25,-28.75,-23.75)"/>
<path style="fill:none;stroke-width:0.929626;stroke-linecap:round;stroke-linejoin:round;stroke:rgb(0%,0%,0%);stroke-opacity:1;stroke-miterlimit:10;" d="M 219.359375 140.715625 L 135.296875 97.4 " transform="matrix(1.25,0,0,1.25,-28.75,-23.75)"/>
<path style="fill:none;stroke-width:0.929626;stroke-linecap:butt;stroke-linejoin:miter;stroke:rgb(0%,0%,0%);stroke-opacity:1;stroke-miterlimit:10;" d="M 131.99375 95.69375 L 135.296875 97.4 M 134.659375 98.640625 L 131.99375 95.69375 L 135.9375 96.159375 " transform="matrix(1.25,0,0,1.25,-28.75,-23.75)"/>
<path style="fill:none;stroke-width:0.929626;stroke-linecap:round;stroke-linejoin:round;stroke:rgb(0%,0%,0%);stroke-opacity:1;stroke-miterlimit:10;" d="M 220.8125 138.53125 L 175.578125 100.6 " transform="matrix(1.25,0,0,1.25,-28.75,-23.75)"/>
<path style="fill:none;stroke-width:0.929626;stroke-linecap:butt;stroke-linejoin:miter;stroke:rgb(0%,0%,0%);stroke-opacity:1;stroke-miterlimit:10;" d="M 172.73125 98.215625 L 175.578125 100.6 M 174.684375 101.671875 L 172.73125 98.215625 L 176.475 99.534375 " transform="matrix(1.25,0,0,1.25,-28.75,-23.75)"/>
<path style="fill:none;stroke-width:0.929626;stroke-linecap:round;stroke-linejoin:round;stroke:rgb(0%,0%,0%);stroke-opacity:1;stroke-miterlimit:10;" d="M 225.08125 135.3125 L 211.74375 105.315625 " transform="matrix(1.25,0,0,1.25,-28.75,-23.75)"/>
<path style="fill:none;stroke-width:0.929626;stroke-linecap:butt;stroke-linejoin:miter;stroke:rgb(0%,0%,0%);stroke-opacity:1;stroke-miterlimit:10;" d="M 210.23125 101.91875 L 211.74375 105.315625 M 210.46875 105.88125 L 210.23125 101.91875 L 213.015625 104.75 " transform="matrix(1.25,0,0,1.25,-28.75,-23.75)"/>
<path style="fill:none;stroke-width:0.929626;stroke-linecap:round;stroke-linejoin:round;stroke:rgb(0%,0%,0%);stroke-opacity:1;stroke-miterlimit:10;" d="M 233.340625 134.8 L 242.05 106.065625 " transform="matrix(1.25,0,0,1.25,-28.75,-23.75)"/>
<path style="fill:none;stroke-width:0.929626;stroke-linecap:butt;stroke-linejoin:miter;stroke:rgb(0%,0%,0%);stroke-opacity:1;stroke-miterlimit:10;" d="M 243.13125 102.50625 L 242.05 106.065625 M 240.71875 105.6625 L 243.13125 102.50625 L 243.3875 106.471875 " transform="matrix(1.25,0,0,1.25,-28.75,-23.75)"/>
<path style="fill:none;stroke-width:0.929626;stroke-linecap:round;stroke-linejoin:round;stroke:rgb(0%,0%,0%);stroke-opacity:1;stroke-miterlimit:10;" d="M 238.484375 137.975 L 276.921875 101.4125 " transform="matrix(1.25,0,0,1.25,-28.75,-23.75)"/>
<path style="fill:none;stroke-width:0.929626;stroke-linecap:butt;stroke-linejoin:miter;stroke:rgb(0%,0%,0%);stroke-opacity:1;stroke-miterlimit:10;" d="M 279.61875 98.85 L 276.921875 101.4125 M 275.9625 100.403125 L 279.61875 98.85 L 277.88125 102.425 " transform="matrix(1.25,0,0,1.25,-28.75,-23.75)"/>
<path style="fill:none;stroke-width:0.929626;stroke-linecap:round;stroke-linejoin:round;stroke:rgb(0%,0%,0%);stroke-opacity:1;stroke-miterlimit:10;" d="M 267.86875 141.515625 L 136.24375 95.20625 " transform="matrix(1.25,0,0,1.25,-28.75,-23.75)"/>
<path style="fill:none;stroke-width:0.929626;stroke-linecap:butt;stroke-linejoin:miter;stroke:rgb(0%,0%,0%);stroke-opacity:1;stroke-miterlimit:10;" d="M 132.734375 93.971875 L 136.24375 95.20625 M 135.78125 96.525 L 132.734375 93.971875 L 136.70625 93.890625 " transform="matrix(1.25,0,0,1.25,-28.75,-23.75)"/>
<path style="fill:none;stroke-width:0.929626;stroke-linecap:round;stroke-linejoin:round;stroke:rgb(0%,0%,0%);stroke-opacity:1;stroke-miterlimit:10;" d="M 268.359375 140.325 L 177.934375 96.953125 " transform="matrix(1.25,0,0,1.25,-28.75,-23.75)"/>
<path style="fill:none;stroke-width:0.929626;stroke-linecap:butt;stroke-linejoin:miter;stroke:rgb(0%,0%,0%);stroke-opacity:1;stroke-miterlimit:10;" d="M 174.58125 95.346875 L 177.934375 96.953125 M 177.33125 98.2125 L 174.58125 95.346875 L 178.5375 95.69375 " transform="matrix(1.25,0,0,1.25,-28.75,-23.75)"/>
<path style="fill:none;stroke-width:0.929626;stroke-linecap:round;stroke-linejoin:round;stroke:rgb(0%,0%,0%);stroke-opacity:1;stroke-miterlimit:10;" d="M 269.58125 138.31875 L 218.559375 99.890625 " transform="matrix(1.25,0,0,1.25,-28.75,-23.75)"/>
<path style="fill:none;stroke-width:0.929626;stroke-linecap:butt;stroke-linejoin:miter;stroke:rgb(0%,0%,0%);stroke-opacity:1;stroke-miterlimit:10;" d="M 215.590625 97.65625 L 218.559375 99.890625 M 217.721875 101.00625 L 215.590625 97.65625 L 219.4 98.778125 " transform="matrix(1.25,0,0,1.25,-28.75,-23.75)"/>
<path style="fill:none;stroke-width:0.929626;stroke-linecap:round;stroke-linejoin:round;stroke:rgb(0%,0%,0%);stroke-opacity:1;stroke-miterlimit:10;" d="M 273.175 135.153125 L 255.70625 104.53125 " transform="matrix(1.25,0,0,1.25,-28.75,-23.75)"/>
<path style="fill:none;stroke-width:0.929626;stroke-linecap:butt;stroke-linejoin:miter;stroke:rgb(0%,0%,0%);stroke-opacity:1;stroke-miterlimit:10;" d="M 253.8625 101.3 L 255.70625 104.53125 M 254.496875 105.221875 L 253.8625 101.3 L 256.91875 103.840625 " transform="matrix(1.25,0,0,1.25,-28.75,-23.75)"/>
<path style="fill:none;stroke-width:0.929626;stroke-linecap:round;stroke-linejoin:round;stroke:rgb(0%,0%,0%);stroke-opacity:1;stroke-miterlimit:10;" d="M 281.225 133.796875 L 286.31875 106.51875 " transform="matrix(1.25,0,0,1.25,-28.75,-23.75)"/>
<path style="fill:none;stroke-width:0.929626;stroke-linecap:butt;stroke-linejoin:miter;stroke:rgb(0%,0%,0%);stroke-opacity:1;stroke-miterlimit:10;" d="M 287.003125 102.8625 L 286.31875 106.51875 M 284.95 106.2625 L 287.003125 102.8625 L 287.690625 106.775 " transform="matrix(1.25,0,0,1.25,-28.75,-23.75)"/>
</g>
</svg>
