<?xml version="1.0" encoding="UTF-8"?>
<svg xmlns="http://www.w3.org/2000/svg" xmlns:xlink="http://www.w3.org/1999/xlink" width="329pt" height="110pt" viewBox="0 0 329 110" version="1.1">
<g id="surface1">
<path style="fill-rule:nonzero;fill:rgb(69.803922%,85.098039%,100%);fill-opacity:1;stroke-width:1;stroke-linecap:round;stroke-linejoin:round;stroke:rgb(0%,0%,0%);stroke-opacity:1;stroke-miterlimit:10;" d="M 124.015625 139.234375 C 128.996875 144.215625 128.996875 152.284375 124.015625 157.265625 C 119.034375 162.246875 110.965625 162.246875 105.984375 157.265625 C 101.003125 152.284375 101.003125 144.215625 105.984375 139.234375 C 110.965625 134.253125 119.034375 134.253125 124.015625 139.234375 " transform="matrix(1.25,0,0,1.25,-30,-92.5)"/>
<path style=" stroke:none;fill-rule:nonzero;fill:rgb(0%,0%,0%);fill-opacity:1;" d="M 112.113281 90.703125 C 111.957031 89.921875 111.820312 89.726562 111.546875 89.726562 C 111.273438 89.726562 110.902344 89.804688 110.21875 90.058594 L 110.101562 90.097656 L 110.140625 90.273438 L 110.335938 90.214844 C 110.550781 90.15625 110.6875 90.136719 110.765625 90.136719 C 111.058594 90.136719 111.136719 90.234375 111.292969 90.898438 L 111.605469 92.304688 L 110.6875 93.613281 C 110.453125 93.945312 110.238281 94.160156 110.101562 94.160156 C 110.042969 94.160156 109.925781 94.121094 109.808594 94.0625 C 109.671875 93.984375 109.554688 93.925781 109.457031 93.925781 C 109.242188 93.925781 109.066406 94.121094 109.066406 94.335938 C 109.066406 94.628906 109.28125 94.804688 109.632812 94.804688 C 109.984375 94.804688 110.21875 94.707031 110.707031 94.042969 L 111.703125 92.714844 L 112.015625 94.042969 C 112.152344 94.609375 112.328125 94.804688 112.679688 94.804688 C 113.109375 94.804688 113.402344 94.550781 114.066406 93.535156 L 113.890625 93.417969 C 113.792969 93.535156 113.753906 93.613281 113.65625 93.75 C 113.402344 94.082031 113.265625 94.199219 113.128906 94.199219 C 112.972656 94.199219 112.875 94.042969 112.796875 93.730469 L 112.425781 92.226562 C 112.367188 91.953125 112.328125 91.796875 112.328125 91.71875 C 112.835938 90.859375 113.246094 90.351562 113.441406 90.351562 C 113.714844 90.351562 113.8125 90.546875 114.027344 90.546875 C 114.242188 90.546875 114.398438 90.371094 114.398438 90.136719 C 114.398438 89.902344 114.222656 89.726562 113.949219 89.726562 C 113.460938 89.726562 113.03125 90.136719 112.25 91.328125 Z M 112.113281 90.703125 "/>
<path style=" stroke:none;fill-rule:nonzero;fill:rgb(0%,0%,0%);fill-opacity:1;" d="M 117.320312 98.4375 L 117.320312 98.320312 C 116.753906 98.320312 116.617188 98.183594 116.617188 97.871094 L 116.617188 93.398438 L 116.539062 93.359375 L 115.210938 94.042969 L 115.210938 94.160156 L 115.40625 94.082031 C 115.542969 94.023438 115.660156 93.984375 115.738281 93.984375 C 115.894531 93.984375 115.972656 94.101562 115.972656 94.355469 L 115.972656 97.734375 C 115.972656 98.144531 115.816406 98.300781 115.25 98.320312 L 115.25 98.4375 Z M 117.320312 98.4375 "/>
<path style="fill-rule:nonzero;fill:rgb(69.803922%,85.098039%,100%);fill-opacity:1;stroke-width:1;stroke-linecap:round;stroke-linejoin:round;stroke:rgb(0%,0%,0%);stroke-opacity:1;stroke-miterlimit:10;" d="M 176.890625 139.234375 C 181.871875 144.215625 181.871875 152.284375 176.890625 157.265625 C 171.909375 162.246875 163.840625 162.246875 158.859375 157.265625 C 153.878125 152.284375 153.878125 144.215625 158.859375 139.234375 C 163.840625 134.253125 171.909375 134.253125 176.890625 139.234375 " transform="matrix(1.25,0,0,1.25,-30,-92.5)"/>
<path style=" stroke:none;fill-rule:nonzero;fill:rgb(0%,0%,0%);fill-opacity:1;" d="M 178.207031 90.703125 C 178.050781 89.921875 177.914062 89.726562 177.640625 89.726562 C 177.367188 89.726562 176.996094 89.804688 176.3125 90.058594 L 176.195312 90.097656 L 176.234375 90.273438 L 176.429688 90.214844 C 176.644531 90.15625 176.78125 90.136719 176.859375 90.136719 C 177.152344 90.136719 177.230469 90.234375 177.386719 90.898438 L 177.699219 92.304688 L 176.78125 93.613281 C 176.546875 93.945312 176.332031 94.160156 176.195312 94.160156 C 176.136719 94.160156 176.019531 94.121094 175.902344 94.0625 C 175.765625 93.984375 175.648438 93.925781 175.550781 93.925781 C 175.335938 93.925781 175.160156 94.121094 175.160156 94.335938 C 175.160156 94.628906 175.375 94.804688 175.726562 94.804688 C 176.078125 94.804688 176.3125 94.707031 176.800781 94.042969 L 177.796875 92.714844 L 178.109375 94.042969 C 178.246094 94.609375 178.421875 94.804688 178.773438 94.804688 C 179.203125 94.804688 179.496094 94.550781 180.160156 93.535156 L 179.984375 93.417969 C 179.886719 93.535156 179.847656 93.613281 179.75 93.75 C 179.496094 94.082031 179.359375 94.199219 179.222656 94.199219 C 179.066406 94.199219 178.96875 94.042969 178.890625 93.730469 L 178.519531 92.226562 C 178.460938 91.953125 178.421875 91.796875 178.421875 91.71875 C 178.929688 90.859375 179.339844 90.351562 179.535156 90.351562 C 179.808594 90.351562 179.90625 90.546875 180.121094 90.546875 C 180.335938 90.546875 180.492188 90.371094 180.492188 90.136719 C 180.492188 89.902344 180.316406 89.726562 180.042969 89.726562 C 179.554688 89.726562 179.125 90.136719 178.34375 91.328125 Z M 178.207031 90.703125 "/>
<path style=" stroke:none;fill-rule:nonzero;fill:rgb(0%,0%,0%);fill-opacity:1;" d="M 184.019531 97.402344 L 183.921875 97.363281 C 183.667969 97.792969 183.511719 97.871094 183.199219 97.871094 L 181.441406 97.871094 L 182.671875 96.542969 C 183.335938 95.839844 183.628906 95.273438 183.628906 94.6875 C 183.628906 93.945312 183.101562 93.359375 182.242188 93.359375 C 181.324219 93.359375 180.855469 93.984375 180.699219 94.863281 L 180.855469 94.902344 C 181.148438 94.160156 181.402344 93.925781 181.949219 93.925781 C 182.59375 93.925781 182.984375 94.296875 182.984375 94.980469 C 182.984375 95.625 182.730469 96.191406 182.007812 96.933594 L 180.679688 98.339844 L 180.679688 98.4375 L 183.609375 98.4375 Z M 184.019531 97.402344 "/>
<path style=" stroke:none;fill-rule:nonzero;fill:rgb(0%,0%,0%);fill-opacity:1;" d="M 12.289062 95 L 12.289062 86.953125 L 13.34375 86.953125 L 13.34375 95 Z M 12.289062 95 "/>
<path style=" stroke:none;fill-rule:nonzero;fill:rgb(0%,0%,0%);fill-opacity:1;" d="M 15.101562 95 L 15.101562 89.160156 L 16 89.160156 L 16 90 C 16.414062 89.367188 17.035156 89.042969 17.855469 89.042969 C 18.207031 89.042969 18.523438 89.109375 18.8125 89.238281 C 19.109375 89.355469 19.332031 89.523438 19.476562 89.726562 C 19.617188 89.921875 19.722656 90.164062 19.789062 90.449219 C 19.828125 90.632812 19.847656 90.953125 19.847656 91.40625 L 19.847656 95 L 18.851562 95 L 18.851562 91.445312 C 18.851562 91.046875 18.8125 90.742188 18.734375 90.546875 C 18.65625 90.351562 18.519531 90.195312 18.324219 90.078125 C 18.128906 89.953125 17.898438 89.882812 17.640625 89.882812 C 17.222656 89.882812 16.859375 90.019531 16.546875 90.292969 C 16.246094 90.554688 16.097656 91.0625 16.097656 91.816406 L 16.097656 95 Z M 15.101562 95 "/>
<path style=" stroke:none;fill-rule:nonzero;fill:rgb(0%,0%,0%);fill-opacity:1;" d="M 21.359375 97.226562 L 21.359375 89.160156 L 22.257812 89.160156 L 22.257812 89.921875 C 22.460938 89.625 22.695312 89.40625 22.960938 89.257812 C 23.234375 89.117188 23.566406 89.042969 23.957031 89.042969 C 24.449219 89.042969 24.882812 89.175781 25.265625 89.433594 C 25.640625 89.683594 25.929688 90.039062 26.125 90.507812 C 26.320312 90.976562 26.417969 91.484375 26.417969 92.03125 C 26.417969 92.632812 26.304688 93.171875 26.085938 93.652344 C 25.875 94.136719 25.566406 94.507812 25.167969 94.765625 C 24.761719 95.007812 24.332031 95.136719 23.878906 95.136719 C 23.550781 95.136719 23.257812 95.0625 23 94.921875 C 22.734375 94.78125 22.519531 94.605469 22.355469 94.394531 L 22.355469 97.226562 Z M 22.257812 92.109375 C 22.257812 92.867188 22.402344 93.429688 22.707031 93.789062 C 23.019531 94.140625 23.390625 94.316406 23.820312 94.316406 C 24.25 94.316406 24.621094 94.136719 24.933594 93.769531 C 25.253906 93.394531 25.421875 92.8125 25.421875 92.03125 C 25.421875 91.289062 25.265625 90.738281 24.953125 90.371094 C 24.648438 89.996094 24.289062 89.804688 23.859375 89.804688 C 23.4375 89.804688 23.066406 90.007812 22.746094 90.410156 C 22.417969 90.800781 22.257812 91.367188 22.257812 92.109375 Z M 22.257812 92.109375 "/>
<path style=" stroke:none;fill-rule:nonzero;fill:rgb(0%,0%,0%);fill-opacity:1;" d="M 31.445312 95 L 31.445312 94.140625 C 30.984375 94.804688 30.371094 95.136719 29.589844 95.136719 C 29.246094 95.136719 28.929688 95.070312 28.632812 94.941406 C 28.328125 94.800781 28.105469 94.628906 27.949219 94.433594 C 27.800781 94.238281 27.703125 94 27.65625 93.710938 C 27.617188 93.515625 27.597656 93.203125 27.597656 92.773438 L 27.597656 89.160156 L 28.574219 89.160156 L 28.574219 92.402344 C 28.574219 92.925781 28.597656 93.273438 28.652344 93.4375 C 28.699219 93.703125 28.828125 93.90625 29.023438 94.0625 C 29.226562 94.210938 29.480469 94.277344 29.785156 94.277344 C 30.082031 94.277344 30.359375 94.210938 30.625 94.0625 C 30.882812 93.90625 31.0625 93.703125 31.171875 93.4375 C 31.273438 93.179688 31.328125 92.792969 31.328125 92.285156 L 31.328125 89.160156 L 32.324219 89.160156 L 32.324219 95 Z M 31.445312 95 "/>
<path style=" stroke:none;fill-rule:nonzero;fill:rgb(0%,0%,0%);fill-opacity:1;" d="M 36.042969 94.121094 L 36.179688 94.980469 C 35.890625 95.042969 35.640625 95.078125 35.4375 95.078125 C 35.070312 95.078125 34.792969 95.019531 34.597656 94.902344 C 34.402344 94.785156 34.253906 94.640625 34.167969 94.453125 C 34.089844 94.273438 34.050781 93.886719 34.050781 93.300781 L 34.050781 89.941406 L 33.328125 89.941406 L 33.328125 89.160156 L 34.050781 89.160156 L 34.050781 87.714844 L 35.046875 87.128906 L 35.046875 89.160156 L 36.042969 89.160156 L 36.042969 89.941406 L 35.046875 89.941406 L 35.046875 93.339844 C 35.046875 93.628906 35.054688 93.808594 35.085938 93.886719 C 35.125 93.964844 35.183594 94.03125 35.261719 94.082031 C 35.339844 94.136719 35.445312 94.160156 35.59375 94.160156 C 35.710938 94.160156 35.855469 94.148438 36.042969 94.121094 Z M 36.042969 94.121094 "/>
<path style=" stroke:none;fill-rule:nonzero;fill:rgb(0%,0%,0%);fill-opacity:1;" d="M 40.105469 95 L 40.105469 86.953125 L 41.082031 86.953125 L 41.082031 95 Z M 40.105469 95 "/>
<path style=" stroke:none;fill-rule:nonzero;fill:rgb(0%,0%,0%);fill-opacity:1;" d="M 46.433594 94.277344 C 46.066406 94.589844 45.714844 94.8125 45.378906 94.941406 C 45.035156 95.070312 44.675781 95.136719 44.285156 95.136719 C 43.644531 95.136719 43.152344 94.980469 42.800781 94.667969 C 42.457031 94.355469 42.292969 93.953125 42.292969 93.457031 C 42.292969 93.171875 42.355469 92.910156 42.488281 92.675781 C 42.613281 92.441406 42.785156 92.257812 42.996094 92.109375 C 43.199219 91.96875 43.433594 91.855469 43.699219 91.777344 C 43.894531 91.738281 44.1875 91.695312 44.578125 91.640625 C 45.382812 91.554688 45.972656 91.4375 46.355469 91.289062 C 46.355469 91.164062 46.355469 91.074219 46.355469 91.035156 C 46.355469 90.632812 46.261719 90.351562 46.082031 90.195312 C 45.816406 89.960938 45.441406 89.84375 44.949219 89.84375 C 44.480469 89.84375 44.132812 89.929688 43.914062 90.097656 C 43.6875 90.253906 43.527344 90.542969 43.425781 90.957031 L 42.46875 90.839844 C 42.546875 90.425781 42.683594 90.09375 42.878906 89.84375 C 43.082031 89.585938 43.375 89.390625 43.757812 89.257812 C 44.148438 89.117188 44.585938 89.042969 45.085938 89.042969 C 45.59375 89.042969 45.992188 89.101562 46.296875 89.21875 C 46.609375 89.335938 46.832031 89.488281 46.980469 89.667969 C 47.136719 89.839844 47.238281 90.058594 47.292969 90.332031 C 47.332031 90.503906 47.351562 90.800781 47.351562 91.230469 L 47.351562 92.558594 C 47.351562 93.472656 47.371094 94.054688 47.410156 94.296875 C 47.449219 94.546875 47.53125 94.78125 47.664062 95 L 46.628906 95 C 46.519531 94.796875 46.457031 94.550781 46.433594 94.277344 Z M 46.355469 92.070312 C 45.988281 92.21875 45.445312 92.339844 44.734375 92.441406 C 44.328125 92.507812 44.039062 92.578125 43.875 92.65625 C 43.703125 92.726562 43.570312 92.828125 43.484375 92.96875 C 43.390625 93.117188 43.347656 93.273438 43.347656 93.4375 C 43.347656 93.703125 43.445312 93.921875 43.640625 94.101562 C 43.835938 94.273438 44.128906 94.355469 44.519531 94.355469 C 44.894531 94.355469 45.230469 94.273438 45.535156 94.101562 C 45.832031 93.9375 46.050781 93.707031 46.199219 93.417969 C 46.300781 93.199219 46.355469 92.871094 46.355469 92.441406 Z M 46.355469 92.070312 "/>
<path style=" stroke:none;fill-rule:nonzero;fill:rgb(0%,0%,0%);fill-opacity:1;" d="M 48.84375 97.246094 L 48.726562 96.328125 C 48.945312 96.375 49.136719 96.40625 49.292969 96.40625 C 49.511719 96.40625 49.6875 96.367188 49.820312 96.289062 C 49.945312 96.21875 50.058594 96.125 50.152344 95.996094 C 50.199219 95.890625 50.296875 95.644531 50.445312 95.253906 C 50.46875 95.199219 50.503906 95.121094 50.542969 95.019531 L 48.316406 89.160156 L 49.390625 89.160156 L 50.601562 92.539062 C 50.757812 92.96875 50.898438 93.417969 51.03125 93.886719 C 51.132812 93.445312 51.265625 93.003906 51.421875 92.558594 L 52.671875 89.160156 L 53.667969 89.160156 L 51.441406 95.097656 C 51.207031 95.734375 51.019531 96.175781 50.894531 96.425781 C 50.707031 96.75 50.507812 96.984375 50.289062 97.128906 C 50.0625 97.285156 49.789062 97.363281 49.46875 97.363281 C 49.28125 97.363281 49.078125 97.324219 48.84375 97.246094 Z M 48.84375 97.246094 "/>
<path style=" stroke:none;fill-rule:nonzero;fill:rgb(0%,0%,0%);fill-opacity:1;" d="M 58.492188 93.125 L 59.527344 93.242188 C 59.355469 93.84375 59.046875 94.3125 58.609375 94.648438 C 58.179688 94.976562 57.621094 95.136719 56.949219 95.136719 C 56.097656 95.136719 55.425781 94.878906 54.917969 94.355469 C 54.417969 93.824219 54.175781 93.082031 54.175781 92.128906 C 54.175781 91.152344 54.429688 90.398438 54.9375 89.863281 C 55.445312 89.316406 56.097656 89.042969 56.910156 89.042969 C 57.691406 89.042969 58.320312 89.3125 58.804688 89.84375 C 59.296875 90.367188 59.546875 91.109375 59.546875 92.070312 C 59.546875 92.140625 59.546875 92.226562 59.546875 92.34375 L 55.191406 92.34375 C 55.230469 92.984375 55.410156 93.472656 55.738281 93.808594 C 56.058594 94.148438 56.46875 94.316406 56.96875 94.316406 C 57.328125 94.316406 57.636719 94.226562 57.886719 94.042969 C 58.144531 93.847656 58.34375 93.546875 58.492188 93.125 Z M 55.25 91.523438 L 58.511719 91.523438 C 58.472656 91.03125 58.34375 90.660156 58.140625 90.410156 C 57.828125 90.035156 57.417969 89.84375 56.910156 89.84375 C 56.449219 89.84375 56.070312 90 55.757812 90.3125 C 55.453125 90.617188 55.289062 91.015625 55.25 91.523438 Z M 55.25 91.523438 "/>
<path style=" stroke:none;fill-rule:nonzero;fill:rgb(0%,0%,0%);fill-opacity:1;" d="M 60.742188 95 L 60.742188 89.160156 L 61.640625 89.160156 L 61.640625 90.058594 C 61.863281 89.644531 62.070312 89.371094 62.265625 89.238281 C 62.460938 89.109375 62.675781 89.042969 62.910156 89.042969 C 63.234375 89.042969 63.574219 89.148438 63.925781 89.355469 L 63.574219 90.273438 C 63.339844 90.132812 63.097656 90.058594 62.851562 90.058594 C 62.644531 90.058594 62.449219 90.125 62.265625 90.253906 C 62.097656 90.386719 61.972656 90.566406 61.894531 90.800781 C 61.789062 91.152344 61.738281 91.539062 61.738281 91.953125 L 61.738281 95 Z M 60.742188 95 "/>
<path style=" stroke:none;fill-rule:nonzero;fill:rgb(0%,0%,0%);fill-opacity:1;" d="M 7.40625 15.761719 C 7.40625 14.433594 7.761719 13.394531 8.480469 12.636719 C 9.191406 11.871094 10.121094 11.484375 11.253906 11.484375 C 11.996094 11.484375 12.664062 11.671875 13.265625 12.03125 C 13.859375 12.382812 14.320312 12.882812 14.632812 13.515625 C 14.945312 14.15625 15.101562 14.875 15.101562 15.664062 C 15.101562 16.484375 14.933594 17.222656 14.613281 17.871094 C 14.285156 18.511719 13.816406 19 13.207031 19.335938 C 12.605469 19.664062 11.957031 19.824219 11.253906 19.824219 C 10.496094 19.824219 9.816406 19.644531 9.222656 19.277344 C 8.621094 18.914062 8.167969 18.414062 7.855469 17.773438 C 7.550781 17.140625 7.40625 16.464844 7.40625 15.761719 Z M 8.5 15.78125 C 8.5 16.757812 8.757812 17.53125 9.28125 18.085938 C 9.796875 18.632812 10.457031 18.90625 11.253906 18.90625 C 12.042969 18.90625 12.703125 18.628906 13.226562 18.066406 C 13.742188 17.507812 14.007812 16.710938 14.007812 15.664062 C 14.007812 15.015625 13.894531 14.449219 13.675781 13.964844 C 13.449219 13.472656 13.128906 13.085938 12.699219 12.8125 C 12.269531 12.539062 11.789062 12.402344 11.273438 12.402344 C 10.515625 12.402344 9.867188 12.664062 9.320312 13.183594 C 8.773438 13.707031 8.5 14.570312 8.5 15.78125 Z M 8.5 15.78125 "/>
<path style=" stroke:none;fill-rule:nonzero;fill:rgb(0%,0%,0%);fill-opacity:1;" d="M 20.179688 19.6875 L 20.179688 18.828125 C 19.71875 19.492188 19.105469 19.824219 18.324219 19.824219 C 17.984375 19.824219 17.664062 19.757812 17.367188 19.628906 C 17.0625 19.488281 16.839844 19.316406 16.683594 19.121094 C 16.539062 18.925781 16.4375 18.6875 16.390625 18.398438 C 16.351562 18.203125 16.332031 17.890625 16.332031 17.460938 L 16.332031 13.847656 L 17.308594 13.847656 L 17.308594 17.089844 C 17.308594 17.613281 17.332031 17.960938 17.386719 18.125 C 17.4375 18.390625 17.5625 18.59375 17.757812 18.75 C 17.960938 18.898438 18.21875 18.964844 18.519531 18.964844 C 18.816406 18.964844 19.09375 18.898438 19.359375 18.75 C 19.617188 18.59375 19.796875 18.390625 19.90625 18.125 C 20.007812 17.867188 20.0625 17.480469 20.0625 16.972656 L 20.0625 13.847656 L 21.058594 13.847656 L 21.058594 19.6875 Z M 20.179688 19.6875 "/>
<path style=" stroke:none;fill-rule:nonzero;fill:rgb(0%,0%,0%);fill-opacity:1;" d="M 24.777344 18.808594 L 24.914062 19.667969 C 24.625 19.730469 24.375 19.765625 24.171875 19.765625 C 23.804688 19.765625 23.527344 19.707031 23.332031 19.589844 C 23.136719 19.472656 22.988281 19.328125 22.902344 19.140625 C 22.824219 18.960938 22.785156 18.574219 22.785156 17.988281 L 22.785156 14.628906 L 22.0625 14.628906 L 22.0625 13.847656 L 22.785156 13.847656 L 22.785156 12.402344 L 23.78125 11.816406 L 23.78125 13.847656 L 24.777344 13.847656 L 24.777344 14.628906 L 23.78125 14.628906 L 23.78125 18.027344 C 23.78125 18.316406 23.789062 18.496094 23.820312 18.574219 C 23.859375 18.652344 23.917969 18.71875 23.996094 18.769531 C 24.074219 18.824219 24.179688 18.847656 24.328125 18.847656 C 24.445312 18.847656 24.589844 18.835938 24.777344 18.808594 Z M 24.777344 18.808594 "/>
<path style=" stroke:none;fill-rule:nonzero;fill:rgb(0%,0%,0%);fill-opacity:1;" d="M 25.734375 21.914062 L 25.734375 13.847656 L 26.632812 13.847656 L 26.632812 14.609375 C 26.835938 14.3125 27.070312 14.09375 27.335938 13.945312 C 27.609375 13.804688 27.941406 13.730469 28.332031 13.730469 C 28.824219 13.730469 29.257812 13.863281 29.640625 14.121094 C 30.015625 14.371094 30.304688 14.726562 30.5 15.195312 C 30.695312 15.664062 30.792969 16.171875 30.792969 16.71875 C 30.792969 17.320312 30.679688 17.859375 30.460938 18.339844 C 30.25 18.824219 29.941406 19.195312 29.542969 19.453125 C 29.136719 19.699219 28.707031 19.824219 28.253906 19.824219 C 27.925781 19.824219 27.632812 19.75 27.375 19.609375 C 27.109375 19.46875 26.894531 19.292969 26.730469 19.082031 L 26.730469 21.914062 Z M 26.632812 16.796875 C 26.632812 17.554688 26.777344 18.117188 27.082031 18.476562 C 27.394531 18.828125 27.765625 19.003906 28.195312 19.003906 C 28.625 19.003906 28.996094 18.824219 29.308594 18.457031 C 29.628906 18.082031 29.796875 17.5 29.796875 16.71875 C 29.796875 15.976562 29.640625 15.425781 29.328125 15.058594 C 29.023438 14.683594 28.664062 14.492188 28.234375 14.492188 C 27.8125 14.492188 27.441406 14.695312 27.121094 15.097656 C 26.792969 15.488281 26.632812 16.054688 26.632812 16.796875 Z M 26.632812 16.796875 "/>
<path style=" stroke:none;fill-rule:nonzero;fill:rgb(0%,0%,0%);fill-opacity:1;" d="M 35.820312 19.6875 L 35.820312 18.828125 C 35.359375 19.492188 34.746094 19.824219 33.964844 19.824219 C 33.621094 19.824219 33.304688 19.757812 33.007812 19.628906 C 32.703125 19.488281 32.480469 19.316406 32.324219 19.121094 C 32.175781 18.925781 32.078125 18.6875 32.03125 18.398438 C 31.992188 18.203125 31.972656 17.890625 31.972656 17.460938 L 31.972656 13.847656 L 32.949219 13.847656 L 32.949219 17.089844 C 32.949219 17.613281 32.972656 17.960938 33.027344 18.125 C 33.074219 18.390625 33.203125 18.59375 33.398438 18.75 C 33.601562 18.898438 33.855469 18.964844 34.160156 18.964844 C 34.457031 18.964844 34.734375 18.898438 35 18.75 C 35.257812 18.59375 35.4375 18.390625 35.546875 18.125 C 35.648438 17.867188 35.703125 17.480469 35.703125 16.972656 L 35.703125 13.847656 L 36.699219 13.847656 L 36.699219 19.6875 Z M 35.820312 19.6875 "/>
<path style=" stroke:none;fill-rule:nonzero;fill:rgb(0%,0%,0%);fill-opacity:1;" d="M 40.417969 18.808594 L 40.554688 19.667969 C 40.265625 19.730469 40.015625 19.765625 39.8125 19.765625 C 39.445312 19.765625 39.167969 19.707031 38.972656 19.589844 C 38.777344 19.472656 38.628906 19.328125 38.542969 19.140625 C 38.464844 18.960938 38.425781 18.574219 38.425781 17.988281 L 38.425781 14.628906 L 37.703125 14.628906 L 37.703125 13.847656 L 38.425781 13.847656 L 38.425781 12.402344 L 39.421875 11.816406 L 39.421875 13.847656 L 40.417969 13.847656 L 40.417969 14.628906 L 39.421875 14.628906 L 39.421875 18.027344 C 39.421875 18.316406 39.429688 18.496094 39.460938 18.574219 C 39.5 18.652344 39.558594 18.71875 39.636719 18.769531 C 39.714844 18.824219 39.820312 18.847656 39.96875 18.847656 C 40.085938 18.847656 40.230469 18.835938 40.417969 18.808594 Z M 40.417969 18.808594 "/>
<path style=" stroke:none;fill-rule:nonzero;fill:rgb(0%,0%,0%);fill-opacity:1;" d="M 44.480469 19.6875 L 44.480469 11.640625 L 45.457031 11.640625 L 45.457031 19.6875 Z M 44.480469 19.6875 "/>
<path style=" stroke:none;fill-rule:nonzero;fill:rgb(0%,0%,0%);fill-opacity:1;" d="M 50.808594 18.964844 C 50.441406 19.277344 50.089844 19.5 49.753906 19.628906 C 49.410156 19.757812 49.050781 19.824219 48.660156 19.824219 C 48.019531 19.824219 47.527344 19.667969 47.175781 19.355469 C 46.832031 19.042969 46.667969 18.640625 46.667969 18.144531 C 46.667969 17.859375 46.730469 17.597656 46.863281 17.363281 C 46.988281 17.128906 47.160156 16.945312 47.371094 16.796875 C 47.574219 16.65625 47.808594 16.542969 48.074219 16.464844 C 48.269531 16.425781 48.5625 16.382812 48.953125 16.328125 C 49.757812 16.242188 50.347656 16.125 50.730469 15.976562 C 50.730469 15.851562 50.730469 15.761719 50.730469 15.722656 C 50.730469 15.320312 50.636719 15.039062 50.457031 14.882812 C 50.191406 14.648438 49.816406 14.53125 49.324219 14.53125 C 48.855469 14.53125 48.507812 14.617188 48.289062 14.785156 C 48.0625 14.941406 47.902344 15.230469 47.800781 15.644531 L 46.84375 15.527344 C 46.921875 15.113281 47.058594 14.78125 47.253906 14.53125 C 47.457031 14.273438 47.75 14.078125 48.132812 13.945312 C 48.523438 13.804688 48.960938 13.730469 49.460938 13.730469 C 49.96875 13.730469 50.367188 13.789062 50.671875 13.90625 C 50.984375 14.023438 51.207031 14.175781 51.355469 14.355469 C 51.511719 14.527344 51.613281 14.746094 51.667969 15.019531 C 51.707031 15.191406 51.726562 15.488281 51.726562 15.917969 L 51.726562 17.246094 C 51.726562 18.160156 51.746094 18.742188 51.785156 18.984375 C 51.824219 19.234375 51.90625 19.46875 52.039062 19.6875 L 51.003906 19.6875 C 50.894531 19.484375 50.832031 19.238281 50.808594 18.964844 Z M 50.730469 16.757812 C 50.363281 16.90625 49.820312 17.027344 49.109375 17.128906 C 48.703125 17.195312 48.414062 17.265625 48.25 17.34375 C 48.078125 17.414062 47.945312 17.515625 47.859375 17.65625 C 47.765625 17.804688 47.722656 17.960938 47.722656 18.125 C 47.722656 18.390625 47.820312 18.609375 48.015625 18.789062 C 48.210938 18.960938 48.503906 19.042969 48.894531 19.042969 C 49.269531 19.042969 49.605469 18.960938 49.910156 18.789062 C 50.207031 18.625 50.425781 18.394531 50.574219 18.105469 C 50.675781 17.886719 50.730469 17.558594 50.730469 17.128906 Z M 50.730469 16.757812 "/>
<path style=" stroke:none;fill-rule:nonzero;fill:rgb(0%,0%,0%);fill-opacity:1;" d="M 53.21875 21.933594 L 53.101562 21.015625 C 53.320312 21.0625 53.511719 21.09375 53.667969 21.09375 C 53.886719 21.09375 54.0625 21.054688 54.195312 20.976562 C 54.320312 20.90625 54.433594 20.8125 54.527344 20.683594 C 54.574219 20.578125 54.671875 20.332031 54.820312 19.941406 C 54.84375 19.886719 54.878906 19.808594 54.917969 19.707031 L 52.691406 13.847656 L 53.765625 13.847656 L 54.976562 17.226562 C 55.132812 17.65625 55.273438 18.105469 55.40625 18.574219 C 55.507812 18.132812 55.640625 17.691406 55.796875 17.246094 L 57.046875 13.847656 L 58.042969 13.847656 L 55.816406 19.785156 C 55.582031 20.421875 55.394531 20.863281 55.269531 21.113281 C 55.082031 21.4375 54.882812 21.671875 54.664062 21.816406 C 54.4375 21.972656 54.164062 22.050781 53.84375 22.050781 C 53.65625 22.050781 53.453125 22.011719 53.21875 21.933594 Z M 53.21875 21.933594 "/>
<path style=" stroke:none;fill-rule:nonzero;fill:rgb(0%,0%,0%);fill-opacity:1;" d="M 62.867188 17.8125 L 63.902344 17.929688 C 63.730469 18.53125 63.421875 19 62.984375 19.335938 C 62.554688 19.664062 61.996094 19.824219 61.324219 19.824219 C 60.472656 19.824219 59.800781 19.566406 59.292969 19.042969 C 58.792969 18.511719 58.550781 17.769531 58.550781 16.816406 C 58.550781 15.839844 58.804688 15.085938 59.3125 14.550781 C 59.820312 14.003906 60.472656 13.730469 61.285156 13.730469 C 62.066406 13.730469 62.695312 14 63.179688 14.53125 C 63.671875 15.054688 63.921875 15.796875 63.921875 16.757812 C 63.921875 16.828125 63.921875 16.914062 63.921875 17.03125 L 59.566406 17.03125 C 59.605469 17.671875 59.785156 18.160156 60.113281 18.496094 C 60.433594 18.835938 60.84375 19.003906 61.34375 19.003906 C 61.703125 19.003906 62.011719 18.914062 62.261719 18.730469 C 62.519531 18.535156 62.71875 18.234375 62.867188 17.8125 Z M 59.625 16.210938 L 62.886719 16.210938 C 62.847656 15.71875 62.71875 15.347656 62.515625 15.097656 C 62.203125 14.722656 61.792969 14.53125 61.285156 14.53125 C 60.824219 14.53125 60.445312 14.6875 60.132812 15 C 59.828125 15.304688 59.664062 15.703125 59.625 16.210938 Z M 59.625 16.210938 "/>
<path style=" stroke:none;fill-rule:nonzero;fill:rgb(0%,0%,0%);fill-opacity:1;" d="M 65.117188 19.6875 L 65.117188 13.847656 L 66.015625 13.847656 L 66.015625 14.746094 C 66.238281 14.332031 66.445312 14.058594 66.640625 13.925781 C 66.835938 13.796875 67.050781 13.730469 67.285156 13.730469 C 67.609375 13.730469 67.949219 13.835938 68.300781 14.042969 L 67.949219 14.960938 C 67.714844 14.820312 67.472656 14.746094 67.226562 14.746094 C 67.019531 14.746094 66.824219 14.8125 66.640625 14.941406 C 66.472656 15.074219 66.347656 15.253906 66.269531 15.488281 C 66.164062 15.839844 66.113281 16.226562 66.113281 16.640625 L 66.113281 19.6875 Z M 65.117188 19.6875 "/>
<path style="fill-rule:nonzero;fill:rgb(69.803922%,85.098039%,100%);fill-opacity:1;stroke-width:1;stroke-linecap:round;stroke-linejoin:round;stroke:rgb(0%,0%,0%);stroke-opacity:1;stroke-miterlimit:10;" d="M 282.640625 138.484375 C 287.621875 143.465625 287.621875 151.534375 282.640625 156.515625 C 277.659375 161.496875 269.590625 161.496875 264.609375 156.515625 C 259.628125 151.534375 259.628125 143.465625 264.609375 138.484375 C 269.590625 133.503125 277.659375 133.503125 282.640625 138.484375 " transform="matrix(1.25,0,0,1.25,-30,-92.5)"/>
<path style=" stroke:none;fill-rule:nonzero;fill:rgb(0%,0%,0%);fill-opacity:1;" d="M 310.394531 89.765625 C 310.238281 88.984375 310.101562 88.789062 309.828125 88.789062 C 309.554688 88.789062 309.183594 88.867188 308.5 89.121094 L 308.382812 89.160156 L 308.421875 89.335938 L 308.617188 89.277344 C 308.832031 89.21875 308.96875 89.199219 309.046875 89.199219 C 309.339844 89.199219 309.417969 89.296875 309.574219 89.960938 L 309.886719 91.367188 L 308.96875 92.675781 C 308.734375 93.007812 308.519531 93.222656 308.382812 93.222656 C 308.324219 93.222656 308.207031 93.183594 308.089844 93.125 C 307.953125 93.046875 307.835938 92.988281 307.738281 92.988281 C 307.523438 92.988281 307.347656 93.183594 307.347656 93.398438 C 307.347656 93.691406 307.5625 93.867188 307.914062 93.867188 C 308.265625 93.867188 308.5 93.769531 308.988281 93.105469 L 309.984375 91.777344 L 310.296875 93.105469 C 310.433594 93.671875 310.609375 93.867188 310.960938 93.867188 C 311.390625 93.867188 311.683594 93.613281 312.347656 92.597656 L 312.171875 92.480469 C 312.074219 92.597656 312.035156 92.675781 311.9375 92.8125 C 311.683594 93.144531 311.546875 93.261719 311.410156 93.261719 C 311.253906 93.261719 311.15625 93.105469 311.078125 92.792969 L 310.707031 91.289062 C 310.648438 91.015625 310.609375 90.859375 310.609375 90.78125 C 311.117188 89.921875 311.527344 89.414062 311.722656 89.414062 C 311.996094 89.414062 312.09375 89.609375 312.308594 89.609375 C 312.523438 89.609375 312.679688 89.433594 312.679688 89.199219 C 312.679688 88.964844 312.503906 88.789062 312.230469 88.789062 C 311.742188 88.789062 311.3125 89.199219 310.53125 90.390625 Z M 310.394531 89.765625 "/>
<path style=" stroke:none;fill-rule:nonzero;fill:rgb(0%,0%,0%);fill-opacity:1;" d="M 316.558594 92.382812 C 316.167969 92.460938 315.894531 92.5 315.40625 92.558594 L 315.40625 92.675781 C 315.816406 92.695312 315.894531 92.714844 315.894531 92.871094 C 315.894531 92.96875 315.894531 93.007812 315.796875 93.398438 L 315.445312 94.628906 C 315.40625 94.335938 315.269531 94.199219 314.957031 94.199219 C 313.980469 94.199219 312.769531 95.488281 312.769531 96.699219 C 312.769531 97.265625 313.082031 97.578125 313.570312 97.578125 C 314.078125 97.578125 314.46875 97.34375 314.898438 96.601562 C 314.820312 96.972656 314.800781 97.089844 314.800781 97.265625 C 314.800781 97.460938 314.917969 97.597656 315.113281 97.597656 C 315.484375 97.597656 315.855469 97.285156 316.207031 96.738281 L 316.128906 96.660156 C 315.71875 97.128906 315.640625 97.207031 315.503906 97.207031 C 315.40625 97.207031 315.367188 97.148438 315.367188 97.050781 C 315.367188 96.933594 315.621094 96.054688 315.855469 95.195312 L 316.304688 93.554688 L 316.597656 92.421875 Z M 315.328125 94.785156 C 315.328125 95.9375 314.546875 97.226562 313.84375 97.226562 C 313.589844 97.226562 313.414062 97.011719 313.414062 96.679688 C 313.414062 96.054688 313.785156 95.234375 314.292969 94.707031 C 314.488281 94.492188 314.761719 94.355469 314.976562 94.355469 C 315.132812 94.355469 315.328125 94.53125 315.328125 94.785156 Z M 315.328125 94.785156 "/>
<path style="fill-rule:nonzero;fill:rgb(40%,74.901961%,100%);fill-opacity:1;stroke-width:1;stroke-linecap:round;stroke-linejoin:round;stroke:rgb(0%,0%,0%);stroke-opacity:1;stroke-miterlimit:10;" d="M 202.640625 78.234375 C 207.621875 83.215625 207.621875 91.284375 202.640625 96.265625 C 197.659375 101.246875 189.590625 101.246875 184.609375 96.265625 C 179.628125 91.284375 179.628125 83.215625 184.609375 78.234375 C 189.590625 73.253125 197.659375 73.253125 202.640625 78.234375 " transform="matrix(1.25,0,0,1.25,-30,-92.5)"/>
<path style=" stroke:none;fill-rule:nonzero;fill:rgb(0%,0%,0%);fill-opacity:1;" d="M 212.617188 15.058594 C 212.617188 14.0625 211.933594 13.476562 211.015625 13.476562 C 210.566406 13.476562 210.117188 13.574219 209.667969 13.808594 C 208.496094 14.453125 207.65625 15.742188 207.65625 16.992188 C 207.65625 17.96875 208.242188 18.554688 209.296875 18.554688 C 210.039062 18.554688 210.761719 18.28125 211.425781 17.636719 C 212.167969 16.894531 212.617188 15.898438 212.617188 15.058594 Z M 211.660156 14.765625 C 211.660156 15.625 211.347656 16.679688 210.839844 17.382812 C 210.390625 18.007812 209.960938 18.320312 209.472656 18.320312 C 208.945312 18.320312 208.59375 17.96875 208.59375 17.304688 C 208.59375 16.40625 208.90625 15.527344 209.433594 14.726562 C 209.882812 14.0625 210.371094 13.710938 210.859375 13.710938 C 211.347656 13.710938 211.660156 14.082031 211.660156 14.765625 Z M 211.660156 14.765625 "/>
<path style=" stroke:none;fill-rule:nonzero;fill:rgb(0%,0%,0%);fill-opacity:1;" d="M 215.917969 22.1875 L 215.917969 22.070312 C 215.351562 22.070312 215.214844 21.933594 215.214844 21.621094 L 215.214844 17.148438 L 215.136719 17.109375 L 213.808594 17.792969 L 213.808594 17.910156 L 214.003906 17.832031 C 214.140625 17.773438 214.257812 17.734375 214.335938 17.734375 C 214.492188 17.734375 214.570312 17.851562 214.570312 18.105469 L 214.570312 21.484375 C 214.570312 21.894531 214.414062 22.050781 213.847656 22.070312 L 213.847656 22.1875 Z M 215.917969 22.1875 "/>
<path style="fill:none;stroke-width:1;stroke-linecap:round;stroke-linejoin:round;stroke:rgb(0%,0%,0%);stroke-opacity:1;stroke-miterlimit:10;" d="M 125.075 140.434375 L 178.890625 98.684375 " transform="matrix(1.25,0,0,1.25,-30,-92.5)"/>
<path style="fill:none;stroke-width:1;stroke-linecap:butt;stroke-linejoin:miter;stroke:rgb(0%,0%,0%);stroke-opacity:1;stroke-miterlimit:10;" d="M 182.05 96.23125 L 178.890625 98.684375 M 177.96875 97.496875 L 182.05 96.23125 L 179.809375 99.86875 " transform="matrix(1.25,0,0,1.25,-30,-92.5)"/>
<path style="fill:none;stroke-width:1;stroke-linecap:round;stroke-linejoin:round;stroke:rgb(0%,0%,0%);stroke-opacity:1;stroke-miterlimit:10;" d="M 172.8375 136.5 L 186.371875 104.434375 " transform="matrix(1.25,0,0,1.25,-30,-92.5)"/>
<path style="fill:none;stroke-width:1;stroke-linecap:butt;stroke-linejoin:miter;stroke:rgb(0%,0%,0%);stroke-opacity:1;stroke-miterlimit:10;" d="M 187.925 100.75 L 186.371875 104.434375 M 184.9875 103.85 L 187.925 100.75 L 187.753125 105.01875 " transform="matrix(1.25,0,0,1.25,-30,-92.5)"/>
<path style="fill:none;stroke-width:1;stroke-linecap:round;stroke-linejoin:round;stroke:rgb(0%,0%,0%);stroke-opacity:1;stroke-miterlimit:10;" d="M 263.4375 139.828125 L 208.525 98.471875 " transform="matrix(1.25,0,0,1.25,-30,-92.5)"/>
<path style="fill:none;stroke-width:1;stroke-linecap:butt;stroke-linejoin:miter;stroke:rgb(0%,0%,0%);stroke-opacity:1;stroke-miterlimit:10;" d="M 205.328125 96.0625 L 208.525 98.471875 M 207.621875 99.66875 L 205.328125 96.0625 L 209.425 97.275 " transform="matrix(1.25,0,0,1.25,-30,-92.5)"/>
<path style=" stroke:none;fill-rule:nonzero;fill:rgb(0%,0%,0%);fill-opacity:1;" d="M 253.691406 94.140625 C 253.691406 93.535156 253.183594 93.007812 252.597656 93.007812 C 251.972656 93.007812 251.484375 93.496094 251.484375 94.121094 C 251.484375 94.746094 251.953125 95.214844 252.578125 95.214844 C 253.183594 95.214844 253.691406 94.726562 253.691406 94.140625 Z M 247.03125 94.140625 C 247.03125 93.535156 246.523438 93.007812 245.9375 93.007812 C 245.3125 93.007812 244.824219 93.496094 244.824219 94.121094 C 244.824219 94.746094 245.292969 95.214844 245.917969 95.214844 C 246.523438 95.214844 247.03125 94.726562 247.03125 94.140625 Z M 240.371094 94.140625 C 240.371094 93.535156 239.863281 93.007812 239.277344 93.007812 C 238.652344 93.007812 238.164062 93.496094 238.164062 94.121094 C 238.164062 94.746094 238.632812 95.214844 239.257812 95.214844 C 239.863281 95.214844 240.371094 94.726562 240.371094 94.140625 Z M 240.371094 94.140625 "/>
</g>
</svg>
